<svg xmlns="http://www.w3.org/2000/svg" width="19.927" height="23.745" viewBox="0 0 19.927 23.745">
  <path id="Path_13889" data-name="Path 13889" d="M9.718-2.877A5.1,5.1,0,0,0,12.951,2a14.626,14.626,0,0,1-2.173,4.134Q9.241,8.253,7.545,8.306a5.733,5.733,0,0,1-1.961-.477,5.964,5.964,0,0,0-2.12-.477,6.172,6.172,0,0,0-2.146.477,5.86,5.86,0,0,1-1.828.477A3.4,3.4,0,0,1-2.975,7.034,12.217,12.217,0,0,1-5.042,4.278a20.1,20.1,0,0,1-1.192-2.6,13.552,13.552,0,0,1-.742-4.293A7.081,7.081,0,0,1-5.148-7.806,6,6,0,0,1-.882-9.714a7.431,7.431,0,0,1,2.279.53,8.738,8.738,0,0,0,1.8.53,2.975,2.975,0,0,0,.768-.185q.556-.185,1.139-.424a7.708,7.708,0,0,1,1.351-.4,4.936,4.936,0,0,1,1.4-.106,5.791,5.791,0,0,1,4.5,2.385A4.861,4.861,0,0,0,9.718-2.877ZM6.7-11.622A4.313,4.313,0,0,1,3.04-9.767a4.776,4.776,0,0,1,1.325-3.816,5.509,5.509,0,0,1,1.643-1.272,4.779,4.779,0,0,1,1.961-.583A5.13,5.13,0,0,1,6.7-11.622Z" transform="translate(6.977 15.437)"/>
</svg>
