<svg xmlns="http://www.w3.org/2000/svg" width="226.55" height="158.419" viewBox="0 0 226.55 158.419">
  <g id="ill-ref" transform="translate(78 -5.908)">
    <path id="Path_14776" data-name="Path 14776" d="M608.587,538.208l-51.213.17c-13.587-4.083-24.719-18.262-24.789-39.522a60.2,60.2,0,0,1,.724-9.566l41.25-9.267,31.822-7.149a63.351,63.351,0,0,1,6.537,6.8l-30.429,16.067-14.354,7.58,16.13-5.565,33.479-11.55a81.247,81.247,0,0,1,5.567,9.981l-10.1,10.44,11.427-7.481.146.344C632.023,516.68,623.037,538.16,608.587,538.208Z" transform="translate(-478.791 -374.05)" fill="#19d4b0"/>
    <path id="Path_14777" data-name="Path 14777" d="M603.468,424.224c-7.745,2.224-17.266,5.034-27.056,7.955-14.154,4.225-28.869,8.683-39.582,11.942l.007-.038a14.729,14.729,0,0,1,2.716-6.306c7.936-10.318,18.041-17.525,29.287-20.2h0a42.2,42.2,0,0,1,9.652-1.152A44.525,44.525,0,0,1,603.468,424.224Z" transform="translate(-482.088 -337.272)" fill="#f2f2f2"/>
    <g id="Group_5956" data-name="Group 5956" transform="translate(98.181 54.579)">
      <path id="Path_14818" data-name="Path 14818" d="M507.921,655.437h-3.136l-1.491-12.1h4.628Z" transform="translate(-498.609 -548.966)" fill="#ffb7b7"/>
      <path id="Path_14819" data-name="Path 14819" d="M492.44,696.959H482.329v-.128a3.936,3.936,0,0,1,3.935-3.936h6.177Z" transform="translate(-482.329 -587.449)" fill="#2f2e41"/>
      <path id="Path_14820" data-name="Path 14820" d="M593.286,644.963l-2.968,1.012L585,635.009l4.381-1.494Z" transform="translate(-562.06 -541.336)" fill="#ffb7b7"/>
      <path id="Path_14821" data-name="Path 14821" d="M595.72,683.107l-9.571,3.264-.041-.121a3.936,3.936,0,0,1,2.454-5h0l5.845-1.994Z" transform="translate(-562.756 -576.861)" fill="#2f2e41"/>
      <path id="Path_14822" data-name="Path 14822" d="M503.816,221.659s-3.121-1.031-5.128,3.092a79.78,79.78,0,0,1-5.128,8.659l1.784.412s.446-2.886,1.561-3.3l-.446,3.711s13.377,4.329,19.4-.412l-.223-1.443a1.338,1.338,0,0,1,.892,1.443l.669-.619a11.3,11.3,0,0,0-2.675-2.886c-1.317-1.082-1.77-3.142-1.925-4.43a5.161,5.161,0,0,0-1.335-2.919C509.924,221.539,507.494,220.021,503.816,221.659Z" transform="translate(-491.051 -220.949)" fill="#2f2e41"/>
      <circle id="Ellipse_963" data-name="Ellipse 963" cx="5.701" cy="5.701" r="5.701" transform="translate(8.215 3.331)" fill="#ffb7b7"/>
      <path id="Path_14835" data-name="Path 14835" d="M804.668,321.233s-.783,2.936-1.762,3.719,2.545,4.111,2.545,4.111l6.656.392,1.175-3.719s-2.154-4.307-1.566-7.047S804.668,321.233,804.668,321.233Z" transform="translate(-793.065 -306.352)" fill="#ffb7b7"/>
      <path id="Path_14823" data-name="Path 14823" d="M498.581,308.412l-1.036-.346s-2.073.864-2.073,2.419-.346,7.774-.346,7.774l4.664.518Z" transform="translate(-492.267 -288.602)" fill="#cbcbcb"/>
      <path id="Path_14824" data-name="Path 14824" d="M580.313,328.949a2.172,2.172,0,1,1,4.339-.224c0,.008,0,.016,0,.024,1.408,12.783.164,15.59-1.164,15.163C582.387,343.566,581.3,341.087,580.313,328.949Z" transform="translate(-558.418 -303.045)" fill="#ffb7b7"/>
      <path id="Path_14825" data-name="Path 14825" d="M581.7,316.458l4.665-.518s-.346-6.219-.346-7.774-2.073-2.418-2.073-2.418l-1.037.346Z" transform="translate(-559.494 -286.801)" fill="#f8c422"/>
      <path id="Path_14826" data-name="Path 14826" d="M498.672,392.293a37.279,37.279,0,0,0-3.973,16.075c0,8.81-.346,49.235-.346,49.235s5.183,2.418,8.292-.518l2.764-44.743,10.884,43.879s5.182,1.037,7.6-.691l-4.664-30.577s-1.9-28.677-7.083-30.75S498.672,392.293,498.672,392.293Z" transform="translate(-491.666 -354.008)" fill="#3f3d56"/>
      <path id="Path_14827" data-name="Path 14827" d="M516.324,239.649a15.609,15.609,0,0,0,4.733-5.144s3.7,4.115,5.967,4.321.206-4.938.206-4.938l-4.116-1.029-3.909.412-3.087,2.058Z" transform="translate(-508.568 -230.198)" fill="#2f2e41"/>
      <path id="Path_14828" data-name="Path 14828" d="M520.29,301.075s.165-.088-9.673.27l-4.118,1.134-.547.151s.518,10.365,1.9,12.265,1.037,2.937.691,3.11-1.209-.173-.691.691,1.209.346.518.864-1.036,2.419-1.036,2.419l15.2,2.073s.518-6.737,1.9-10.193a44.549,44.549,0,0,0,1.727-4.837l-1.037-6.91Z" transform="translate(-500.673 -283.165)" fill="#f8c422"/>
    </g>
    <path id="Path_14780" data-name="Path 14780" d="M514.621,65.871V210.7a6.51,6.51,0,0,1-6.508,6.5h-58.8a6.5,6.5,0,0,1-6.508-6.5V65.871a6.508,6.508,0,0,1,6.509-6.508h8.8v1.128a5.36,5.36,0,0,0,5.358,5.36h29.9a5.314,5.314,0,0,0,3.177-1.046,4.931,4.931,0,0,0,.527-.442,5.344,5.344,0,0,0,1.654-3.872V59.362h9.377A6.506,6.506,0,0,1,514.621,65.871Z" transform="translate(-409.074 -53.454)" fill="#fff"/>
    <path id="Path_14781" data-name="Path 14781" d="M554.239,281.256c0,4.042-2.4,5.454-5.364,5.455l-.205,0q-.206,0-.408-.018c-2.675-.188-4.754-1.671-4.756-5.429,0-3.89,4.967-8.8,5.34-9.164h0l.021-.021S554.237,277.214,554.239,281.256Z" transform="translate(-487.273 -225.176)" fill="#74b9ff"/>
    <path id="Path_14782" data-name="Path 14782" d="M559.152,286.092l1.961-2.743-1.966,3.045-.006.315q-.206,0-.408-.018l.21-4.044,0-.031,0-.006.02-.382-1.974-3.05,1.98,2.764.005.081.158-3.055-1.69-3.152,1.71,2.615.164-6.334v0l-.025,4.995,1.68-1.981-1.687,2.411-.043,2.735,1.569-2.626-1.575,3.028-.024,1.521,2.277-3.655-2.285,4.186Z" transform="translate(-497.746 -225.176)" fill="#3f3d56"/>
    <path id="Path_14783" data-name="Path 14783" d="M297.14,484.7H246.2v16.823l4.265-4.265H297.14Z" transform="translate(-202.028 -377.032)" fill="#6c63ff"/>
    <rect id="Rectangle_837" data-name="Rectangle 837" width="28.659" height="2.324" transform="translate(55.535 110.718)" fill="#fff"/>
    <rect id="Rectangle_838" data-name="Rectangle 838" width="28.659" height="2.324" transform="translate(55.535 114.204)" fill="#fff"/>
    <path id="Path_14784" data-name="Path 14784" d="M246.2,382.2H297.14v16.823l-4.265-4.265H246.2Z" transform="translate(-202.028 -297.433)" fill="#6c63ff"/>
    <rect id="Rectangle_839" data-name="Rectangle 839" width="28.659" height="2.324" transform="translate(52.854 88.04)" fill="#fff"/>
    <rect id="Rectangle_840" data-name="Rectangle 840" width="28.659" height="2.324" transform="translate(52.854 91.526)" fill="#fff"/>
    <path id="Path_14785" data-name="Path 14785" d="M480.515,205.808v41.02h54.964v-41.02Zm7.083.516a.885.885,0,1,1-.886.885.885.885,0,0,1,.886-.885Zm-5.312,1.771a.885.885,0,1,1,.885-.885.886.886,0,0,1-.885.885Zm1.771-.885a.885.885,0,1,1,.885.885.885.885,0,0,1-.885-.885Zm30.47,28.109H484.942V213.333h29.584Z" transform="translate(-438.356 -173.715)" fill="#d5d5d5"/>
    <rect id="Rectangle_844" data-name="Rectangle 844" width="13.354" height="0.664" transform="translate(80.818 39.249)" fill="#fff"/>
    <rect id="Rectangle_845" data-name="Rectangle 845" width="13.354" height="0.664" transform="translate(80.818 41.537)" fill="#fff"/>
    <rect id="Rectangle_846" data-name="Rectangle 846" width="13.354" height="0.664" transform="translate(80.818 43.824)" fill="#fff"/>
    <rect id="Rectangle_847" data-name="Rectangle 847" width="13.354" height="0.664" transform="translate(80.818 46.111)" fill="#fff"/>
    <rect id="Rectangle_848" data-name="Rectangle 848" width="13.354" height="0.664" transform="translate(80.818 48.398)" fill="#fff"/>
    <rect id="Rectangle_849" data-name="Rectangle 849" width="13.354" height="0.664" transform="translate(80.818 50.685)" fill="#fff"/>
    <rect id="Rectangle_850" data-name="Rectangle 850" width="13.354" height="0.664" transform="translate(80.818 52.972)" fill="#fff"/>
    <rect id="Rectangle_851" data-name="Rectangle 851" width="13.354" height="0.664" transform="translate(80.818 55.259)" fill="#fff"/>
    <rect id="Rectangle_852" data-name="Rectangle 852" width="13.354" height="0.664" transform="translate(80.818 57.546)" fill="#fff"/>
    <rect id="Rectangle_853" data-name="Rectangle 853" width="13.354" height="0.664" transform="translate(80.818 59.833)" fill="#fff"/>
    <circle id="Ellipse_955" data-name="Ellipse 955" cx="0.885" cy="0.885" r="0.885" transform="translate(47.471 62.268)" fill="#fff"/>
    <circle id="Ellipse_956" data-name="Ellipse 956" cx="0.885" cy="0.885" r="0.885" transform="translate(50.496 62.268)" fill="#fff"/>
    <circle id="Ellipse_957" data-name="Ellipse 957" cx="0.885" cy="0.885" r="0.885" transform="translate(53.521 62.268)" fill="#fff"/>
    <rect id="Rectangle_854" data-name="Rectangle 854" width="13.354" height="3.763" transform="translate(80.818 67.506)" fill="#74b9ff"/>
    <path id="Path_14808" data-name="Path 14808" d="M802.735,533.957s.661,19.125,1.052,19.712,0-19.772,0-19.772Z" transform="translate(-669.465 -428.499)" opacity="0.1"/>
    <path id="Path_14810" data-name="Path 14810" d="M763.8,390.567a20.874,20.874,0,0,1-9.2-2.311l-4.894-1.695s-4.307-5.239-4.7-4.314.587,2.773.587,2.773-6.414.962-6.06,2.436c.073.3,3.319-.433,3.319-.433s-.587,2.927,2.741,3.081,4.307-.462,4.307-.462,14.094,9.245,16.443,6.317S763.8,390.567,763.8,390.567Z" transform="translate(-642.317 -303.845)" fill="#ffb7b7"/>
    <g id="Group_5957" data-name="Group 5957" transform="translate(-78 49.049)">
      <path id="Path_14841" data-name="Path 14841" d="M320.215,363.773l2.015-18.49,3.19-12.99-5.941-1.84-3.132,14.618,1.035,17.987a2.682,2.682,0,1,0,2.833.714Z" transform="translate(-311.742 -306.932)" fill="#a0616a"/>
      <path id="Path_14842" data-name="Path 14842" d="M311.815,426.972c.417-6.131,3.361-12.043,8.559-17.759l13.908.856.214,10.7,11.126,59.054-3.852.214-18.187-38.3-8.559,38.086-3.851.214Z" transform="translate(-308.331 -368.094)" fill="#2f2e41"/>
      <circle id="Ellipse_967" data-name="Ellipse 967" cx="6.633" cy="6.633" r="6.633" transform="translate(10.973 2.781)" fill="#a0616a"/>
      <path id="Path_14843" data-name="Path 14843" d="M331.842,324.734a22.774,22.774,0,0,1-2.382-13.228,5.753,5.753,0,0,1,3.915-4.76h0l7.7.214,5.563,6.2c2.663,3.258,4.324,6.615,3,10.27l-1.284,8.131-14.336-.856Z" transform="translate(-322.401 -288.52)" fill="#e6e6e6"/>
      <path id="Path_14844" data-name="Path 14844" d="M298.554,252.513h0c3.1-1.341,3.162-4.129,1.958-7.516-1.594-3.2-.434-6.218,2.378-9.126A5,5,0,0,0,304.7,231.3a5.085,5.085,0,0,1,1.456-4.276c1.1-1.054,6.2-1.707,7.8-1.765l2.088-.076q.159-.006.318,0h0a6.333,6.333,0,0,1,6.244,6.42h0c-3.342-.808-3.749.146-5.579,2.284a8.234,8.234,0,0,0-1.87,5.725c.116,2.808-1.8,7.347-3.526,11.718,2.03,3.518-.484,6.329-3.377,8.836H308.1C304.1,260.161,297.545,256.382,298.554,252.513Z" transform="translate(-298.45 -225.178)" fill="#2f2e41"/>
      <ellipse id="Ellipse_968" data-name="Ellipse 968" cx="0.856" cy="1.605" rx="0.856" ry="1.605" transform="translate(16.643 9.093)" fill="#a0616a"/>
      <path id="Path_14845" data-name="Path 14845" d="M389,384.906l-4.792-17.971L382.5,353.669l-6.205.428,2.353,14.763,7.456,16.4a2.682,2.682,0,1,0,2.9-.356Z" transform="translate(-358.9 -324.961)" fill="#a0616a"/>
      <path id="Path_14846" data-name="Path 14846" d="M366.108,312.217c0-.095,0-.189,0-.284a4.418,4.418,0,0,1,4.623-4.2h0a4.418,4.418,0,0,1,4.207,4.489l.716,8.125c-2.621-1.978-5.261-1.818-7.917.214Z" transform="translate(-350.991 -289.282)" fill="#e6e6e6"/>
      <path id="Path_14847" data-name="Path 14847" d="M446.74,724.106h5.395a3.438,3.438,0,0,1,3.438,3.437v.112H446.74Z" transform="translate(-413.607 -612.631)" fill="#2f2e41"/>
      <path id="Path_14848" data-name="Path 14848" d="M310.74,724.106h5.395a3.438,3.438,0,0,1,3.438,3.437v.112H310.74Z" transform="translate(-307.994 -612.631)" fill="#2f2e41"/>
    </g>
  </g>
</svg>
