<svg xmlns="http://www.w3.org/2000/svg" width="79.645" height="50.837" viewBox="0 0 79.645 50.837">
  <g id="girl_ill" data-name="girl ill" transform="translate(-208.642 -211.81)">
    <path id="Path_24208" data-name="Path 24208" d="M674.034,346.5a6.869,6.869,0,0,1,2.443,4.415c.079.5.116,1.01.2,1.513a8.812,8.812,0,0,0,3,5.3,1.609,1.609,0,0,1-1.5-.041,10.241,10.241,0,0,0,1.892,3.868,7.893,7.893,0,0,1-2.643-2.169,6.653,6.653,0,0,0,1.345,5.087,5.316,5.316,0,0,1-2.835-3.36l1.181,3.115a3.291,3.291,0,0,1-1.7-1.486,12.061,12.061,0,0,1-1.928-8.1c.146-1.192.472-2.363.525-3.563a4.351,4.351,0,0,0-1.075-3.329,3.84,3.84,0,0,0-2.445-.99c-.56-.04-2.009.407-1.461-.6C669.868,344.617,673.057,345.749,674.034,346.5Z" transform="translate(-413.928 -132.611)" fill="#3f3d56"/>
    <path id="Path_24209" data-name="Path 24209" d="M674.06,343.759l.708,1.694c.31.248.47-.238.579-.132a2.879,2.879,0,0,1,.371.462l.038-.021-1.039-2.32C674.361,343.127,674.184,343.572,674.06,343.759Z" transform="translate(-418.443 -130.807)" fill="#74b9ff"/>
    <ellipse id="Ellipse_1863" data-name="Ellipse 1863" cx="7.61" cy="7.324" rx="7.61" ry="7.324" transform="translate(244.105 211.81)" fill="#3f3d56"/>
    <path id="Path_24210" data-name="Path 24210" d="M482.1,684.05a11.77,11.77,0,0,0-4.554.258,3.546,3.546,0,0,1-1.654.344,2.734,2.734,0,0,1-1.449-1.024,3.923,3.923,0,0,1-1.041-1.642,2.256,2.256,0,0,1,.183-1.462.6.6,0,0,1,.137-.2.669.669,0,0,1,.474-.105,19.814,19.814,0,0,0,4.281.163c.825-.146,2.451-.753,2.933.29C481.618,681.1,481.277,683.989,482.1,684.05Z" transform="translate(-242.589 -425.855)" fill="#575a89"/>
    <path id="Path_24211" data-name="Path 24211" d="M354.373,625.756a42.3,42.3,0,0,0-5.539,2.081l-4.034,1.733,1.192,2.952c.1.248-.092.233.156.344a2.15,2.15,0,0,0,1.191.187c2.718-1.039,5.844-.444,8.577-1.441a16.387,16.387,0,0,1,3.006-1.114c1.238-.2,2.549.183,3.748-.194a.619.619,0,0,0,.332-.2.626.626,0,0,0,.069-.4,6.631,6.631,0,0,0-.947-2.856c-.328-.579-.852-1.733-1.5-2.016-.737-.316-2.175.146-2.943.26A28.331,28.331,0,0,0,354.373,625.756Z" transform="translate(-129.948 -377.36)" fill="#ffc1c7"/>
    <path id="Path_24212" data-name="Path 24212" d="M303.833,666.461a11.748,11.748,0,0,0-4.306,1.5,3.545,3.545,0,0,1-1.5.786,2.728,2.728,0,0,1-1.674-.586,3.911,3.911,0,0,1-1.453-1.291,2.262,2.262,0,0,1-.227-1.457.608.608,0,0,1,.076-.232.663.663,0,0,1,.428-.232,25.028,25.028,0,0,0,4.564-1.57c.753-.371,1.746-.852,2.5.017C302.552,663.759,303.02,666.635,303.833,666.461Z" transform="translate(-86 -410.819)" fill="#575a89"/>
    <path id="Path_24213" data-name="Path 24213" d="M621.133,444.546a2.364,2.364,0,0,0-.118.9v2.285a2.858,2.858,0,0,0,.115.973,2.525,2.525,0,0,0,.78.99,10.71,10.71,0,0,0,3.517,2.028,3.753,3.753,0,0,0,2.236.212,3.832,3.832,0,0,0,1.16-.629,13.117,13.117,0,0,0,2.567-2.47,3.794,3.794,0,0,0,1.016-3.325,4.044,4.044,0,0,1-3.009-2.7,3.828,3.828,0,0,0-.51-1.32c-.639-.79-1.877-.568-2.848-.272-.942.286-2.579.452-3.277,1.17-.276.284-.381.749-.651,1.059C621.788,443.827,621.331,444.062,621.133,444.546Z" transform="translate(-371.961 -216.339)" fill="#ffc1c7"/>
    <path id="Path_24214" data-name="Path 24214" d="M621.133,444.546a2.364,2.364,0,0,0-.118.9v2.285a2.858,2.858,0,0,0,.115.973,2.525,2.525,0,0,0,.78.99,10.71,10.71,0,0,0,3.517,2.028,3.753,3.753,0,0,0,2.236.212,3.832,3.832,0,0,0,1.16-.629,13.117,13.117,0,0,0,2.567-2.47,3.794,3.794,0,0,0,1.016-3.325,4.044,4.044,0,0,1-3.009-2.7,3.828,3.828,0,0,0-.51-1.32c-.639-.79-1.877-.568-2.848-.272-.942.286-2.579.452-3.277,1.17-.276.284-.381.749-.651,1.059C621.788,443.827,621.331,444.062,621.133,444.546Z" transform="translate(-371.961 -216.339)" opacity="0.1"/>
    <circle id="Ellipse_1864" data-name="Ellipse 1864" cx="6.137" cy="6.137" r="6.137" transform="translate(247.501 215.861)" fill="#ffc1c7"/>
    <path id="Path_24215" data-name="Path 24215" d="M739.527,514.709c.319.456.6.94.93,1.385a13.6,13.6,0,0,0,2.476,2.352L748,522.5a11.091,11.091,0,0,0,4.689,2.631,1.774,1.774,0,0,0,1.717-.4,1.49,1.49,0,0,0-.344-1.934,7,7,0,0,0-1.9-1.012c-2.768-1.286-4.445-4.086-6.393-6.438-1.712-2.064-3.724-3.857-5.591-5.781-1.981-2.045-3.548-4.419-5.439-6.512a6.864,6.864,0,0,0-2.137,3.467,3,3,0,0,0,1.114,2.573C735.545,511.077,737.965,512.486,739.527,514.709Z" transform="translate(-469.706 -270.76)" fill="#ffc1c7"/>
    <path id="Path_24216" data-name="Path 24216" d="M729.324,480.2c-.022,1.749-1.509,3.141-1.892,4.847a5.735,5.735,0,0,1-.2.832,2.9,2.9,0,0,1-.775,1.009,3.859,3.859,0,0,1-1.8,1.068c-.083.016.248-5.736.364-6.27C725.381,479.959,727.883,480.355,729.324,480.2Z" transform="translate(-462.764 -250.73)" fill="#ff6584"/>
    <path id="Path_24217" data-name="Path 24217" d="M479.3,463.323a7.407,7.407,0,0,0,.484,3.032,3.571,3.571,0,0,0,2.158,2.074,5.427,5.427,0,0,0,1.621.146,4.18,4.18,0,0,0,1.3-.162,3.154,3.154,0,0,0,1.743-1.877c.334-.815.477-1.694.752-2.529.144-.44.41-.932.867-.973a1.3,1.3,0,0,1,.8.31l2.476,1.678a16.109,16.109,0,0,1-1.039,8.454,12.846,12.846,0,0,0-.825,2.44c-.288,1.746.443,3.477,1.034,5.145.431,1.216.792,2.455,1.155,3.693l.912,3.121a4.646,4.646,0,0,1,.27,2.229,1.593,1.593,0,0,1-1.57,1.348c-.209-.024-.436-.1-.619,0-.447.248.051.92.01,1.431-.052.661-.947.8-1.609.789-3.291-.073-6.54.636-9.8,1.068s-6.673.572-9.754-.586a24.281,24.281,0,0,1-3.753-1.935c-2.3-1.362-4.724-2.857-5.852-5.277a26.261,26.261,0,0,0-1.341-3.228,4.789,4.789,0,0,1-.93-1.671,2.149,2.149,0,0,1,1.362-2.128,7.23,7.23,0,0,1,2.667-.436,4.952,4.952,0,0,0,2.6-.661c.808-.553,1.3-1.535,2.2-1.926a8.019,8.019,0,0,1,1.213-.306,5.762,5.762,0,0,0,1.559-.7,11.49,11.49,0,0,0,5.252-11.257,8.976,8.976,0,0,1-.124-1.312.4.4,0,0,1,.042-.218.347.347,0,0,1,.178-.118c.572-.21,1.221-.1,1.8-.287.438-.144.8-.449,1.227-.635a1.136,1.136,0,0,1,1.289.124A1.529,1.529,0,0,1,479.3,463.323Z" transform="translate(-228.932 -234.713)" fill="#ff6584"/>
    <path id="Path_24218" data-name="Path 24218" d="M606.312,363.143c-.437-1.56-2.422-2.489-2.714-4.074a2.738,2.738,0,0,1,.816-2.31,7.558,7.558,0,0,1,2.156-1.447,7.037,7.037,0,0,1,3.714-1,8.211,8.211,0,0,1,4.129,1.194,4.989,4.989,0,0,1,1.177,2.684,2.205,2.205,0,0,1-.917,2.352,5.657,5.657,0,0,1-3.116.539,3.826,3.826,0,0,0-2.947.917,7.861,7.861,0,0,0-.768,1.471,1.5,1.5,0,0,1-1.338.9Z" transform="translate(-356.675 -140.416)" fill="#3f3d56"/>
    <path id="Path_24219" data-name="Path 24219" d="M536.248,496.011a7.59,7.59,0,0,0-.99,2,4.281,4.281,0,0,0,.633,3.4,5.8,5.8,0,0,0,2.781,2.137c.441.168.9.292,1.333.473,1.936.8,3.374,2.7,5.436,3.079a1.538,1.538,0,0,0,.877-.042c.659-.28.776-1.146.8-1.857a2.2,2.2,0,0,0-.141-1.049,1.869,1.869,0,0,0-.568-.619c-1.476-1.13-3.364-1.56-4.981-2.476a2.837,2.837,0,0,1-1.617-1.929,3.945,3.945,0,0,1,1.148-2.543c1.369-1.905,2.533-4.988,1.876-7.36-.926-3.343-3.207,1.377-3.816,2.352Q537.633,493.793,536.248,496.011Z" transform="translate(-296.718 -257.606)" fill="#ffc1c7"/>
    <path id="Path_24220" data-name="Path 24220" d="M562.971,474.2a13.169,13.169,0,0,0-.891,1.345,5.621,5.621,0,0,1-1.609,1.58,2.591,2.591,0,0,1,2.05.36c.449.4.553,1.06.846,1.59a1.956,1.956,0,0,0,1.024.915,1.421,1.421,0,0,0,1.335-.181,2.5,2.5,0,0,0,.651-2l.026-1.307a2.056,2.056,0,0,0-.312-1.39,2.9,2.9,0,0,0-.733-.513C564.374,474,564.077,472.934,562.971,474.2Z" transform="translate(-318.916 -244.954)" fill="#ff6584"/>
    <path id="Path_24221" data-name="Path 24221" d="M597.172,395.3c.167-.691-.3-1.409-.176-2.1a1.29,1.29,0,0,1,.588-.858c.172-.105.371-.168.546-.265a1.644,1.644,0,0,0,.693-2.024,2.837,2.837,0,0,0-1.4-1.253,2.15,2.15,0,0,0-1.931-.26c-.728.383-.831,1.362-.841,2.189a6.6,6.6,0,0,0,.182,2.011,5.4,5.4,0,0,0,1.077,1.889C596,394.713,597.06,395.771,597.172,395.3Z" transform="translate(-348.868 -170.288)" fill="#3f3d56"/>
    <path id="Path_24222" data-name="Path 24222" d="M540.433,405.938c-.558,1.689-2.476,2.391-3.818,3.59a1.756,1.756,0,0,0,.1-.6,5.1,5.1,0,0,1,.017-1.466,5.608,5.608,0,0,1-2.848,1.822l-.542-5.464a6.33,6.33,0,0,1-3.542,3.9c1.538-2.755,2.006-5.956,2.5-9.071a22.54,22.54,0,0,1,.515-2.6,11.7,11.7,0,0,1,1.4-3.132,7.511,7.511,0,0,1,1.362-1.609,2.18,2.18,0,0,1,1.718-.646h0c1.013.191.605.687,0,1.143-.48.359-1.087.695-1.231.838a1.461,1.461,0,0,0-.355.584,3.617,3.617,0,0,0,.322,2.342,33.663,33.663,0,0,0,2.833,5.4,14.718,14.718,0,0,1,1.362,2.331A3.776,3.776,0,0,1,540.433,405.938Z" transform="translate(-292.044 -172.261)" fill="#3f3d56"/>
    <path id="Path_24223" data-name="Path 24223" d="M577.152,391.4l.163,1.829c-.16.359-.526.009-.573.154a2.833,2.833,0,0,0-.124.583h-.043l-.165-2.537C576.592,390.981,576.956,391.294,577.152,391.4Z" transform="translate(-332.883 -172.744)" fill="#74b9ff"/>
    <circle id="Ellipse_1865" data-name="Ellipse 1865" cx="1.203" cy="1.203" r="1.203" transform="translate(281.215 243.605)" fill="#3f3d56"/>
    <path id="Path_24224" data-name="Path 24224" d="M871.166,674.277a6.428,6.428,0,0,1-.264,2.609,1.933,1.933,0,0,1-.173.458,4.84,4.84,0,0,1-.295.4,3.467,3.467,0,0,0-.431.931,26.156,26.156,0,0,0-.769,2.737.186.186,0,0,0,0,.116c.028.067.124.077.191.076h.945c.035-.064-.029-.135-.068-.2-.136-.209,0-.48.113-.7a7.445,7.445,0,0,0,.666-1.684,4.536,4.536,0,0,1,.223-.732,7.282,7.282,0,0,1,.487-.789,6.677,6.677,0,0,0,.462-.974,6.276,6.276,0,0,0,.456-1.429,5.694,5.694,0,0,0-.01-1.408.09.09,0,0,0-.1-.1l-1.268-.064c-.261-.014-.323-.071-.283.186C871.073,673.9,871.138,674.084,871.166,674.277Z" transform="translate(-589.445 -420.106)" fill="#575a89"/>
    <path id="Path_24225" data-name="Path 24225" d="M871.166,674.277a6.428,6.428,0,0,1-.264,2.609,1.933,1.933,0,0,1-.173.458,4.84,4.84,0,0,1-.295.4,3.467,3.467,0,0,0-.431.931,26.156,26.156,0,0,0-.769,2.737.186.186,0,0,0,0,.116c.028.067.124.077.191.076h.945c.035-.064-.029-.135-.068-.2-.136-.209,0-.48.113-.7a7.445,7.445,0,0,0,.666-1.684,4.536,4.536,0,0,1,.223-.732,7.282,7.282,0,0,1,.487-.789,6.677,6.677,0,0,0,.462-.974,6.276,6.276,0,0,0,.456-1.429,5.694,5.694,0,0,0-.01-1.408.09.09,0,0,0-.1-.1l-1.268-.064c-.261-.014-.323-.071-.283.186C871.073,673.9,871.138,674.084,871.166,674.277Z" transform="translate(-589.445 -420.106)" opacity="0.1"/>
    <path id="Path_24226" data-name="Path 24226" d="M883.675,661.929a1.722,1.722,0,0,0-.442,1.238,1.751,1.751,0,0,0,.563.841,7.66,7.66,0,0,1,2.248,3.381c.084.344.124.7.2,1.045a11.428,11.428,0,0,0,.607,1.829l.631,1.6a.954.954,0,0,0,.911-.6.4.4,0,0,1-.239-.155,2.928,2.928,0,0,1-.394-1.306c-.076-.5-.178-1-.281-1.5l-.451-2.2c-.052-.255-.1-.509-.172-.76a16,16,0,0,1-.839-2.888.674.674,0,0,0-.124-.418.619.619,0,0,0-.433-.144A5.631,5.631,0,0,0,883.675,661.929Z" transform="translate(-601.705 -409.877)" fill="#575a89"/>
    <path id="Path_24227" data-name="Path 24227" d="M867.748,735.865a.926.926,0,0,0-.209-.027.434.434,0,0,0-.342.187.837.837,0,0,0-.092.2l-.092.261a.288.288,0,0,0-.012.236.247.247,0,0,0,.124.1,2.29,2.29,0,0,0,.711.124c.234.023.466.064.7.108.079.015.159.03.239.038a2.93,2.93,0,0,0,.541-.016l.186-.019a.651.651,0,0,0,.182-.033.234.234,0,0,0,.135-.124.218.218,0,0,0-.172-.271c-.05-.01-.1,0-.15-.011a.686.686,0,0,1-.162-.05,3.144,3.144,0,0,1-.686-.334c-.058-.041-.124-.1-.113-.168a.376.376,0,0,1,.03-.087.321.321,0,0,0,0-.225c-.012-.031-.033-.063-.066-.067-.089-.011-.078.118-.092.168a.091.091,0,0,1-.113.068A5.066,5.066,0,0,1,867.748,735.865Z" transform="translate(-587.48 -474.584)" fill="#3f3d56"/>
    <path id="Path_24228" data-name="Path 24228" d="M916.078,735.978a.6.6,0,0,0,.124.363.294.294,0,0,0,.092.073.361.361,0,0,0,.166.026,1.316,1.316,0,0,0,.468-.094,1.606,1.606,0,0,1,.161-.061,2.056,2.056,0,0,1,.211-.031,5.425,5.425,0,0,0,.792-.287,1.909,1.909,0,0,0,.234-.077,1.091,1.091,0,0,0,.277-.217.715.715,0,0,0,.124-.152.678.678,0,0,0,.054-.307.087.087,0,0,0-.009-.047.062.062,0,0,0-.03-.023.432.432,0,0,0-.269,0,4.766,4.766,0,0,1-.99.037.2.2,0,0,1-.094-.019.21.21,0,0,1-.059-.068l-.124-.2c-.036-.058-.093-.124-.158-.105a.124.124,0,0,0-.071.135.715.715,0,0,1,.007.162.218.218,0,0,1-.108.14.663.663,0,0,1-.168.066,1.279,1.279,0,0,0-.546.248C916.066,735.632,916.072,735.848,916.078,735.978Z" transform="translate(-630.495 -473.795)" fill="#3f3d56"/>
    <path id="Path_24229" data-name="Path 24229" d="M906.42,626.2a.764.764,0,0,0,.185-.2.821.821,0,0,0,.078-.276l.053-.334a1,1,0,0,1,.186-.52.35.35,0,0,1,.5-.052.438.438,0,0,1,.09.224,1.624,1.624,0,0,1-.4,1.347c-.151.166-.336.3-.5.454-.14.135-.26.288-.389.436a5.385,5.385,0,0,1-1.059.925,4.8,4.8,0,0,0,0-.768c-.027-.181-.1-.277.073-.395A13,13,0,0,0,906.42,626.2Z" transform="translate(-620.903 -377.373)" fill="#fbbebe"/>
    <path id="Path_24230" data-name="Path 24230" d="M886.494,612.961a.619.619,0,0,1-.234.467q.63.219,1.238.485a.433.433,0,0,1-.106-.3,1.521,1.521,0,0,1,.233-.812.193.193,0,0,0,.038-.107c0-.079-.1-.116-.177-.134a4.426,4.426,0,0,0-.8-.116c-.116,0-.248-.041-.228.108a1.63,1.63,0,0,1,.041.41Z" transform="translate(-604.371 -366.596)" fill="#fbbebe"/>
    <circle id="Ellipse_1866" data-name="Ellipse 1866" cx="0.984" cy="0.984" r="0.984" transform="translate(281.951 244.493)" fill="#fbbebe"/>
    <path id="Path_24231" data-name="Path 24231" d="M885.6,619.905a1.189,1.189,0,0,0-.124-.209,4.326,4.326,0,0,0-.591-.724,3.726,3.726,0,0,0-.561-.411,1.247,1.247,0,0,0-.352-.17,1.359,1.359,0,0,0-.224-.031l-.256-.02a.209.209,0,0,0-.068,0,.144.144,0,0,0-.085.173.419.419,0,0,0,.114.18c.011.521-.22,1.036-.248,1.556-.054.911.5,1.758.546,2.669a.315.315,0,0,1-.012.124c-.007.019-.019.036-.027.055a.516.516,0,0,0-.031.185.936.936,0,0,1-.281.586.414.414,0,0,0,.156.124,2.755,2.755,0,0,0,.349.083,2.725,2.725,0,0,0,.912.156.814.814,0,0,0,.071-.265c.043-.027.094.031.1.082s0,.111.032.149a.151.151,0,0,0,.124.025,5.385,5.385,0,0,0,.555-.13,1.049,1.049,0,0,1,.563,0,.149.149,0,0,0-.009-.165.744.744,0,0,1-.088-.151.335.335,0,0,1-.011-.1,4.223,4.223,0,0,0,0-.867c-.017-.083-.043-.163-.061-.248a2.177,2.177,0,0,1-.024-.5c0-.167-.016-.343-.019-.51a1.906,1.906,0,0,0-.014-.207c-.011-.072-.033-.141-.04-.214-.019-.183.056-.371.045-.55C886.032,620.311,885.708,620.159,885.6,619.905Z" transform="translate(-601.689 -371.765)" fill="#74b9ff"/>
    <path id="Path_24232" data-name="Path 24232" d="M875.239,629.781a10.7,10.7,0,0,0-.47,1.97l-.27,1.564a7.471,7.471,0,0,0-.15,1.335,1.418,1.418,0,0,1-.026.371,1.958,1.958,0,0,1-.23.436,1.444,1.444,0,0,0-.156.974c.029.14.1.3.248.314a.341.341,0,0,0,.286-.176,2.229,2.229,0,0,0,.3-.743,16.771,16.771,0,0,0,.468-2.6,2.452,2.452,0,0,1,.046-.329,2.349,2.349,0,0,1,.114-.329l.31-.766a12.249,12.249,0,0,1,.8-1.733c-.323-.093-.66-.2-.983-.295A.938.938,0,0,0,875.239,629.781Z" transform="translate(-593.55 -381.779)" fill="#fbbebe"/>
    <path id="Path_24233" data-name="Path 24233" d="M883.413,628.465a3.665,3.665,0,0,0-.691-.04.149.149,0,0,1-.093-.025c-.047-.04-.027-.115,0-.172l.111-.269a.388.388,0,0,1,.09-.149.371.371,0,0,1,.212-.072,1.889,1.889,0,0,1,.743.029.879.879,0,0,1,.568.44.3.3,0,0,1,.006.295c-.088.124-.285.266-.431.2A2.647,2.647,0,0,0,883.413,628.465Z" transform="translate(-601.165 -379.982)" fill="#74b9ff"/>
    <path id="Path_24234" data-name="Path 24234" d="M876.958,592.271a1,1,0,0,0-.548.157,1.2,1.2,0,0,0-1.181-.276.688.688,0,1,0-.8.8,1.189,1.189,0,0,0-.053.354,1.2,1.2,0,0,0,2.364.322,1.025,1.025,0,0,0,.215.022.706.706,0,1,0,0-1.376Z" transform="translate(-593.508 -348.322)" fill="#3f3d56"/>
    <path id="Path_24235" data-name="Path 24235" d="M897.605,603.535a1.018,1.018,0,0,1-.215-.022,1.2,1.2,0,0,1-.16.347,1.1,1.1,0,0,0,.2.02.811.811,0,0,0,.854-.619A.945.945,0,0,1,897.605,603.535Z" transform="translate(-613.983 -358.554)" opacity="0.1"/>
    <path id="Path_24236" data-name="Path 24236" d="M875.764,595.729a1.2,1.2,0,0,1-1.15-1.557.688.688,0,0,1-.569-.677.826.826,0,0,1,.011-.124.688.688,0,0,0,.386,1.145,1.2,1.2,0,0,0,2.3.713,1.2,1.2,0,0,1-.977.5Z" transform="translate(-593.518 -349.889)" opacity="0.1"/>
  </g>
</svg>
