<svg xmlns="http://www.w3.org/2000/svg" xmlns:xlink="http://www.w3.org/1999/xlink" width="42.214" height="63.218" viewBox="0 0 42.214 63.218">
  <defs>
    <linearGradient id="linear-gradient" x1="0.5" y1="1" x2="0.5" gradientUnits="objectBoundingBox">
      <stop offset="0" stop-color="gray" stop-opacity="0.251"/>
      <stop offset="0.54" stop-color="gray" stop-opacity="0.122"/>
      <stop offset="1" stop-color="gray" stop-opacity="0.102"/>
    </linearGradient>
  </defs>
  <g id="patient_ill" data-name="patient ill" transform="translate(-29.739 -495.771)">
    <g id="Group_13944" data-name="Group 13944" transform="translate(45.355 495.772)">
      <rect id="Rectangle_1558" data-name="Rectangle 1558" width="3.199" height="3.199" transform="translate(12.28 16.483)" fill="#74b9ff" opacity="0.1"/>
      <rect id="Rectangle_1560" data-name="Rectangle 1560" width="3.199" height="3.199" transform="translate(12.28 24.374)" fill="#74b9ff" opacity="0.1"/>
      <rect id="Rectangle_1562" data-name="Rectangle 1562" width="3.199" height="3.199" transform="translate(12.28 32.263)" fill="#74b9ff" opacity="0.1"/>
      <rect id="Rectangle_1564" data-name="Rectangle 1564" width="3.199" height="3.199" transform="translate(12.28 40.154)" fill="#74b9ff" opacity="0.1"/>
      <rect id="Rectangle_1566" data-name="Rectangle 1566" width="3.199" height="3.199" transform="translate(12.28 48.044)" fill="#74b9ff" opacity="0.1"/>
      <path id="Path_24451" data-name="Path 24451" d="M847.715,293.686s-1.857-9.239-1.146-10.389c0,0,.026-1.069-.017-2.431v-.156a3.473,3.473,0,0,0,.39.225,3.158,3.158,0,0,0,2.126.274l-.562-.627a1.037,1.037,0,0,1-.3-.509,1.067,1.067,0,0,1,.121-.551,3.828,3.828,0,0,0-.467-4.077c-.87-.866-1.081-1.984-2.025-2.775a5.848,5.848,0,0,1-1.426-2.25,12.648,12.648,0,0,1-.781-2.129c-.135-.575-.189-1.17-.375-1.731a2.2,2.2,0,0,0-1.076-1.358,4.063,4.063,0,0,1-.585-.258,2.524,2.524,0,0,1-.539-.633c-.852-1.125-3.7-.462-5.053-.006a2.844,2.844,0,0,0-1,.553l.012-.02c.01-.017.022-.034.034-.051a1.771,1.771,0,0,0-.378.422,10.114,10.114,0,0,0-.443,1.012c-.2.4-1.3,1.514-.826,1.963a.4.4,0,0,0,.112.072.973.973,0,0,0,.562.056l-.02.048a3.289,3.289,0,0,0-.244,1.247,3.376,3.376,0,0,0,3.406,3.346,3.438,3.438,0,0,0,1.043-.161c.008.043.015.085.023.128a.382.382,0,0,0,.008.051h0l-.06.083-.01-.015-1.766,2.468c-.27.19-1.824,1.315-1.912,2.159-.092.923-.184,2-.184,2l-.012.232a.7.7,0,0,1-.562.152c-.551-.09-.551,2.025-.551,2.025s-.367.337-.619.045-.918.7-.918.7l-4.173.18h0l-.1.006-.225-.7a.294.294,0,0,0-.368-.188.338.338,0,0,0-.051.021l-.016.009-.029.02-.015.014a.229.229,0,0,0-.023.024l-.013.016-.007.007h0a.283.283,0,0,0-.04.252l.193.6c-.805.162-1.629.619-.957,1.876l-3.4-.629,1.1.925,5.685,1.173c-.075.135-.026.331.209.606a5.805,5.805,0,0,0,3.6,1.6,6.387,6.387,0,0,0,.73,1.237l-.064,1.184s-1.88,9.028-2.224,9.486a5.343,5.343,0,0,0,.476-.626c-.546,1.855-1.308,4.394-1.508,4.774-.322.607-.62,3.065-.253,3.223a3.085,3.085,0,0,0,.893-.01v.2l-.02,7.715a37.4,37.4,0,0,1-.161,5.183,4.411,4.411,0,0,0-.321,1.4,13.717,13.717,0,0,1-1.814,2.616.122.122,0,0,1-.018.016l-.025-.175a3.827,3.827,0,0,1-3.1,1.148s-1.283.835.62.88,4.334-.067,4.334-.067,1.7-2.587,3.119-2.25v1.961h.435v-1.992a1.785,1.785,0,0,0,.775-1.173,1.426,1.426,0,0,0-.508-1.319.844.844,0,0,1-.278-.616l-.016.013a1.184,1.184,0,0,0-.015-.121,11.224,11.224,0,0,1,.271-4.647,12.378,12.378,0,0,0,.435-6.828,15.71,15.71,0,0,1-.438-1.711c-.013-.073-.026-.143-.037-.208a8.863,8.863,0,0,1,1.117.225,31.355,31.355,0,0,0,6.454.4c.006.065.012.134.02.2a7.361,7.361,0,0,0,.265,1.408,35.87,35.87,0,0,1,.436,4.867,25.754,25.754,0,0,1,.175,4.589c-.112.738-.225,1.479-.289,2.224v.015s-.632,1.8-1.094,2.777c-.011.025-.024.05-.035.073a1.461,1.461,0,0,0-.361.08s-.62,1.237-1.237,1.442-.413.878.985.631,3.509-.45,3.509-.45l.091-1.262.43-.538-.113,1.259.458-.09-.061-1.531.7-.88s.849-.756-.413-2.243v.033c-.013-.021-.026-.044-.04-.065v-.007a2.4,2.4,0,0,1-.071-2c.551-1.937.872-3.7.872-3.7s1.231-4.71-.249-6.938h.065a3.744,3.744,0,0,1-.318-.99c-.007-.04-.014-.082-.02-.125a8.116,8.116,0,0,0,3.045-.688S848.152,295.465,847.715,293.686Zm-13.895-7.8v.022l-.225.011Zm-.772.107a.248.248,0,0,0-.1.048,1,1,0,0,0-.177.462l-.351-.079s-.246-.053-.6-.112l-.168-.169C832.113,286.11,832.592,286.054,833.049,286Z" transform="translate(-822.47 -263.692)" fill="url(#linear-gradient)"/>
      <path id="Path_24452" data-name="Path 24452" d="M971.454,741.755l-.134,1.594.449-.09-.068-1.729Z" transform="translate(-949.263 -681.187)" fill="#1d2366"/>
      <path id="Path_24453" data-name="Path 24453" d="M880.433,659.592a11.392,11.392,0,0,0-.267,4.631c.045.373.087.6.087.6s-.809,1.842-.876,1.912-2.38,1.481-2.38,1.481l-1.616.944s-1.64-.719-.854-.966a1.194,1.194,0,0,0,.424-.289,13.575,13.575,0,0,0,1.776-2.607,4.485,4.485,0,0,1,.315-1.393,37.974,37.974,0,0,0,.157-5.165l.019-7.688v-1l3.076.022a6.979,6.979,0,0,0,.133,1.012,15.479,15.479,0,0,0,.429,1.705A12.518,12.518,0,0,1,880.433,659.592Z" transform="translate(-868.482 -606.592)" fill="#ffb0b1"/>
      <path id="Path_24454" data-name="Path 24454" d="M880.253,776.668s-.809,1.842-.876,1.912-2.38,1.481-2.38,1.481l-1.616.944s-1.64-.719-.854-.966a1.2,1.2,0,0,0,.424-.289l.07.492.539-.023,4.612-4.149C880.211,776.441,880.253,776.668,880.253,776.668Z" transform="translate(-868.482 -718.437)" opacity="0.1"/>
      <path id="Path_24455" data-name="Path 24455" d="M857.653,777l-4.638,4.178-.539.023-.112-.787a3.724,3.724,0,0,1-3.037,1.145s-1.257.831.606.876,4.244-.068,4.244-.068,1.663-2.587,3.054-2.25v1.954h.427V780.1a1.776,1.776,0,0,0,.758-1.17,1.433,1.433,0,0,0-.5-1.314A.847.847,0,0,1,857.653,777Z" transform="translate(-845.938 -719.262)" fill="#1d2366"/>
      <path id="Path_24456" data-name="Path 24456" d="M990.592,661.333a2.433,2.433,0,0,0,.069,1.993v.007a3.683,3.683,0,0,1,.538,1.313l.018.1-2.11,3.076-1.145.45s-1.841-.629-1.505-.809a1.723,1.723,0,0,0,.367-.6c.45-.973,1.071-2.768,1.071-2.768v-.015c.065-.741.169-1.48.283-2.216a26.116,26.116,0,0,0-.172-4.574,36.469,36.469,0,0,0-.427-4.85,7.417,7.417,0,0,1-.262-1.4c-.061-.562-.074-1.026-.074-1.026s1.213-1.687,3.435.135a2.443,2.443,0,0,1,.464.5c1.536,2.184.3,7,.3,7S991.131,659.4,990.592,661.333Z" transform="translate(-967.974 -605.931)" fill="#ffb0b1"/>
      <path id="Path_24457" data-name="Path 24457" d="M991.246,775.168l-2.11,3.076-1.145.45s-1.841-.629-1.505-.809a1.723,1.723,0,0,0,.367-.6,1.455,1.455,0,0,1,1.183.736l.988-.158a19.066,19.066,0,0,1,1.595-2.716c.292-.156.045-1.169.045-1.169v-.258c.008.009.015.019.024.028v.007a3.682,3.682,0,0,1,.538,1.313Z" transform="translate(-968.001 -716.351)" opacity="0.1"/>
      <path id="Path_24458" data-name="Path 24458" d="M976.126,778.6a1.375,1.375,0,0,0-1.64-.651s-.606,1.237-1.213,1.438-.4.875.966.629,3.435-.45,3.435-.45l.09-1.259,1.393-1.774s.83-.752-.4-2.234v.258s.247,1.012-.045,1.169a19,19,0,0,0-1.59,2.718Z" transform="translate(-956.023 -716.866)" fill="#1d2366"/>
      <path id="Path_24459" data-name="Path 24459" d="M903.22,650.052a6.979,6.979,0,0,0,.133,1.012,14.115,14.115,0,0,0-3.212-.033v-1Z" transform="translate(-891.404 -606.574)" opacity="0.1"/>
      <path id="Path_24460" data-name="Path 24460" d="M997.82,650.927s-1.8.088-3.946.106c-.061-.562-.074-1.026-.074-1.026s1.213-1.687,3.435.135a2.445,2.445,0,0,1,.465.5A2.758,2.758,0,0,0,997.82,650.927Z" transform="translate(-974.528 -605.922)" opacity="0.1"/>
      <path id="Path_24461" data-name="Path 24461" d="M906.5,495.262s-7.883.381-10.285-.292-4.784-.09-5.143-.246-.068-2.605.247-3.211,2.043-6.738,2.043-6.738l1.663-8.668,1.751-.483.124-.035,3.052-.841,2.236-.618s4.446,17.359,4.065,18.639a3.279,3.279,0,0,0-.065,1.506A3.758,3.758,0,0,0,906.5,495.262Z" transform="translate(-883.212 -450.46)" fill="#1d2366"/>
      <path id="Path_24462" data-name="Path 24462" d="M869.462,439s-1.575,1.687-.383,2.628a1.4,1.4,0,0,0,1.976.09Z" transform="translate(-863.441 -419.281)" fill="#c7daf5"/>
      <path id="Path_24463" data-name="Path 24463" d="M869.462,439s-1.575,1.687-.383,2.628a1.4,1.4,0,0,0,1.976.09Z" transform="translate(-863.441 -419.281)" opacity="0.1"/>
      <path id="Path_24464" data-name="Path 24464" d="M962.529,316.114s-.185.176-.462.434c-.4.37-.982.911-1.5,1.364-.72.627-1.314,1.087-1.1.694a3.033,3.033,0,0,0,.066-1.716c-.008-.043-.015-.085-.022-.127a11.787,11.787,0,0,0-.348-1.39,24.041,24.041,0,0,1,1.806-2.1c.24-.225.407-.317.417-.161a5.224,5.224,0,0,0,.364,1.168c.006.016.011.03.018.046.13.337.278.684.407.983C962.371,315.772,962.529,316.114,962.529,316.114Z" transform="translate(-943.785 -307.488)" fill="#ffb0b1"/>
      <path id="Path_24465" data-name="Path 24465" d="M961.766,314.34a3.339,3.339,0,0,1-2.236,2.56,11.706,11.706,0,0,0-.37-1.517s2.19-2.829,2.224-2.256A5.352,5.352,0,0,0,961.766,314.34Z" transform="translate(-943.785 -307.498)" opacity="0.1"/>
      <path id="Path_24466" data-name="Path 24466" d="M927.281,350.849l.283-.4s.188,1.145.878.64.724,3.8.724,3.8l-.741,11.083-5.356-.321.152-5.355.606-2.7,1.5-3.924.892-1.3Z" transform="translate(-911.754 -340.691)" opacity="0.1"/>
      <path id="Path_24467" data-name="Path 24467" d="M929.194,355.456l-.675,10.021-.071,1.062-2.986-.179-.112-.007-2.25-.135.152-5.356.606-2.7,1.5-3.924.892-1.3,1.062-1.533.283-.4s.188,1.145.878.64l.015-.01h0C929.163,351.212,929.194,355.456,929.194,355.456Z" transform="translate(-911.781 -341.188)" fill="#1d2366"/>
      <path id="Path_24468" data-name="Path 24468" d="M875.741,406.26a.82.82,0,0,1-.809.471c-.54-.091-.539,2.025-.539,2.025s-.359.337-.606.045-.9.7-.9.7l-4.088.18a3.036,3.036,0,0,1,1.462,3.346s6.175-.382,6.378-.966S875.741,406.26,875.741,406.26Z" transform="translate(-863.589 -390.224)" fill="#fff"/>
      <path id="Path_24469" data-name="Path 24469" d="M875.741,406.26a.82.82,0,0,1-.809.471c-.54-.091-.539,2.025-.539,2.025s-.359.337-.606.045-.9.7-.9.7l-4.088.18a3.036,3.036,0,0,1,1.462,3.346s6.175-.382,6.378-.966S875.741,406.26,875.741,406.26Z" transform="translate(-863.589 -390.224)" opacity="0.03"/>
      <path id="Path_24470" data-name="Path 24470" d="M777.66,389.76l1.078.92,8.87,1.864-1.1-1.123Z" transform="translate(-777.387 -368.985)" fill="#fff"/>
      <path id="Path_24471" data-name="Path 24471" d="M909.992,348.852a22.71,22.71,0,0,0-.921,2.382c-.294.838-.539,1.575-.539,1.575a42.116,42.116,0,0,1-.865,4.4,13.458,13.458,0,0,0-.134,3.3L906.443,367a32.364,32.364,0,0,1-1.256,5.345,9.734,9.734,0,0,1-1.616,2.919c.337-.457,2.177-9.448,2.177-9.448l.607-11.34s.089-1.078.179-2,1.912-2.179,1.912-2.179l1.757-2.5C910.378,348.036,910.26,348.448,909.992,348.852Z" transform="translate(-894.448 -338.339)" fill="#fff"/>
      <path id="Path_24472" data-name="Path 24472" d="M887.77,467.092s-2.587-.112-3.84-1.617,2.9-.6,2.9-.6l1.079.247Z" transform="translate(-876.807 -442.006)" fill="#ffb0b1"/>
      <path id="Path_24473" data-name="Path 24473" d="M952.567,388.313a3.278,3.278,0,0,0-.065,1.506,21.439,21.439,0,0,1-5.841-.562,13.127,13.127,0,0,1-2.044,1.28l-.808-10.011c-.516-1.35-.719-8.422-.719-8.422s.046-.37.112-.925a.106.106,0,0,1,.006-.042,42.927,42.927,0,0,1,.8-4.849c.27-.54-.83-1.976-.83-1.976l.5-4.269.061-.515a5.155,5.155,0,0,0,1.864-1.976l.621-1.088h0c.675-.433.71,3.811.71,3.811l-.675,10.021,2.236-.617S952.948,387.033,952.567,388.313Z" transform="translate(-929.523 -346.002)" opacity="0.1"/>
      <path id="Path_24474" data-name="Path 24474" d="M956.528,367.852c-3.076,1.527-8.668.112-8.668.112a13.119,13.119,0,0,1-2.044,1.28l-.809-10.011c-.515-1.35-.718-8.422-.718-8.422s.65-5.277.92-5.815a.866.866,0,0,0-.053-.643,8.143,8.143,0,0,1-.493-3.767l.216-1.835.06-.514a5.161,5.161,0,0,0,1.865-1.977l.562-.985,1.035-1.815.49-.859.083.075.635.576.675.562c.881.742,2.4,2.049,3.188,2.849.691.7.909,3.443.972,5.5.042,1.358.017,2.422.017,2.422-.7,1.146,1.125,10.348,1.125,10.348C956.012,356.716,956.528,367.852,956.528,367.852Z" transform="translate(-930.588 -324.849)" fill="#fff"/>
      <path id="Path_24475" data-name="Path 24475" d="M925.9,363.688s-2.111,4.019-1.866,5.547.943,3.256.606,3.66a1.243,1.243,0,0,1-.989.494,3.25,3.25,0,0,0-1.237.719,11.731,11.731,0,0,0-1.575.382,9.8,9.8,0,0,1-1.841.494,9.567,9.567,0,0,0-2.336.135,3.005,3.005,0,0,0,.023,2.38,3.75,3.75,0,0,0,1.258,1.819c.358.132,2.628-.629,4.469-.809a9.508,9.508,0,0,0,3.84-1.639s2.2-.787,2.587-2.111-.471-8.6-.471-8.6S927.718,362.767,925.9,363.688Z" transform="translate(-905.864 -352.3)" opacity="0.03"/>
      <path id="Path_24476" data-name="Path 24476" d="M923.525,360.691s-2.111,4.02-1.864,5.547.943,3.256.605,3.661a1.237,1.237,0,0,1-.988.494,3.251,3.251,0,0,0-1.237.719,11.824,11.824,0,0,0-1.575.381,9.9,9.9,0,0,1-1.841.494,9.556,9.556,0,0,0-2.335.135,3.006,3.006,0,0,0,.022,2.38,3.763,3.763,0,0,0,1.258,1.819c.358.132,2.628-.629,4.469-.808a9.487,9.487,0,0,0,3.84-1.64s2.2-.787,2.581-2.11-.471-8.6-.471-8.6S925.344,359.771,923.525,360.691Z" transform="translate(-903.759 -349.639)" opacity="0.03"/>
      <path id="Path_24477" data-name="Path 24477" d="M925.327,361.9s-2.111,4.02-1.864,5.546.943,3.256.606,3.66a1.237,1.237,0,0,1-.989.495,3.264,3.264,0,0,0-1.237.718,11.568,11.568,0,0,0-1.575.382,9.829,9.829,0,0,1-1.841.494,9.566,9.566,0,0,0-2.336.135,3.006,3.006,0,0,0,.022,2.38,3.756,3.756,0,0,0,1.258,1.819c.358.132,2.628-.629,4.469-.809a9.508,9.508,0,0,0,3.84-1.639s2.2-.787,2.587-2.111-.466-8.6-.466-8.6S927.144,360.985,925.327,361.9Z" transform="translate(-905.358 -350.714)" fill="#fff"/>
      <path id="Path_24478" data-name="Path 24478" d="M989.931,458.208s-1.687-.337-1.1.225.584,1.055,1.3,1.033S989.931,458.208,989.931,458.208Z" transform="translate(-970.008 -436.239)" opacity="0.1"/>
      <path id="Path_24479" data-name="Path 24479" d="M1023.368,566.58s-.763.516.7,1.706S1023.368,566.58,1023.368,566.58Z" transform="translate(-1000.594 -532.511)" opacity="0.1"/>
      <path id="Path_24480" data-name="Path 24480" d="M1011.741,604.31c0,.068-.27,2.475.74,3.076S1011.741,604.31,1011.741,604.31Z" transform="translate(-990.423 -565.997)" opacity="0.1"/>
      <path id="Path_24481" data-name="Path 24481" d="M854.293,436.59c-.814.028-2.574.277-1.661,1.979.807,1.506,2.162.5,2.925-.264A2.874,2.874,0,0,0,854.293,436.59Z" transform="translate(-849.012 -417.142)" fill="#ffb0b1"/>
      <path id="Path_24482" data-name="Path 24482" d="M881.39,451Z" transform="translate(-874.763 -429.931)" fill="#ffb0b1"/>
      <path id="Path_24483" data-name="Path 24483" d="M880.74,451.435l.034-.035Z" transform="translate(-874.186 -430.286)" fill="#ffb0b1"/>
      <path id="Path_24484" data-name="Path 24484" d="M954.946,334.406c-.864.591-1.588,1.089-1.73,1.192a16.994,16.994,0,0,0-1.6,2.83c-.379.692-1.611.87-2.075.913l.06-.514a5.161,5.161,0,0,0,1.865-1.977l2.088-3.66.719.654Z" transform="translate(-935.247 -325.373)" opacity="0.1"/>
      <path id="Path_24485" data-name="Path 24485" d="M954.946,333.806c-.864.591-1.588,1.089-1.73,1.193a16.928,16.928,0,0,0-1.6,2.829c-.379.692-1.611.87-2.075.913l.06-.514a5.161,5.161,0,0,0,1.865-1.977l2.088-3.66.719.651S954.541,333.464,954.946,333.806Z" transform="translate(-935.247 -324.84)" fill="#dce7ff"/>
      <path id="Path_24486" data-name="Path 24486" d="M930.169,291.6a3.336,3.336,0,1,1-2.836-3.3A3.331,3.331,0,0,1,930.169,291.6Z" transform="translate(-912.132 -285.499)" fill="#ffb0b1"/>
      <path id="Path_24487" data-name="Path 24487" d="M937.9,302.818a2.965,2.965,0,0,1-1.076-1.156,3.045,3.045,0,0,0-.633-1.063,2.813,2.813,0,0,0-1.035-.4,3.034,3.034,0,0,1-2.213-2.662,15.775,15.775,0,0,0,.081-1.734,1.922,1.922,0,0,0-.376-.894,3.085,3.085,0,0,0-.325-.35c-.158-.148-.323-.292-.467-.45a1.746,1.746,0,0,1-.236-.321,1.545,1.545,0,0,1-.129-.3c-.225-.688-.02-1.505-.268-2.2l-.013-.038a.716.716,0,0,0-.548-.514c-.264-.019-.49.2-.742.3a1.657,1.657,0,0,1-1.536-.5,2.107,2.107,0,0,0-1.495-.683,4.828,4.828,0,0,0-1,.435,1.4,1.4,0,0,1-.237.069,3.336,3.336,0,0,1,6.358,1.939c.006.016.011.03.018.046.13.337.278.684.407.983l.635.576.675.562c.881.742,2.4,2.049,3.188,2.849C937.622,298.018,937.837,300.756,937.9,302.818Z" transform="translate(-914.044 -285.498)" opacity="0.1"/>
      <path id="Path_24488" data-name="Path 24488" d="M920.125,268.033c.161-.327.241-.694.433-1a2.393,2.393,0,0,1,1.281-.912c1.322-.456,4.115-1.117,4.949,0a2.437,2.437,0,0,0,.528.63,3.919,3.919,0,0,0,.573.258,2.188,2.188,0,0,1,1.053,1.35c.181.556.235,1.152.368,1.724a12.678,12.678,0,0,0,.765,2.122,5.845,5.845,0,0,0,1.4,2.241c.921.787,1.125,1.9,1.98,2.766a3.862,3.862,0,0,1,.458,4.063,1.116,1.116,0,0,0-.119.549,1.076,1.076,0,0,0,.3.508l.553.624a3.112,3.112,0,0,1-3.4-1.568,3.041,3.041,0,0,0-.634-1.063,2.805,2.805,0,0,0-1.034-.4,3.037,3.037,0,0,1-2.212-2.665,15.734,15.734,0,0,0,.081-1.732,1.912,1.912,0,0,0-.377-.9c-.309-.4-.776-.675-1.028-1.125-.426-.752-.1-1.73-.409-2.538a.718.718,0,0,0-.548-.514c-.264-.019-.49.2-.744.3a1.653,1.653,0,0,1-1.535-.5,2.1,2.1,0,0,0-1.5-.682,4.7,4.7,0,0,0-1,.435c-.252.1-.763.183-.983-.029C918.852,269.544,919.931,268.434,920.125,268.033Z" transform="translate(-908.322 -265.299)" fill="#591d4b"/>
      <path id="Path_24489" data-name="Path 24489" d="M931.361,289.646a3.043,3.043,0,0,0-.634-1.062,2.8,2.8,0,0,0-1.035-.4,3.038,3.038,0,0,1-2.213-2.664,16,16,0,0,0,.082-1.733,1.921,1.921,0,0,0-.377-.894c-.31-.4-.777-.675-1.028-1.125-.426-.751-.1-1.729-.411-2.538a.72.72,0,0,0-.547-.514c-.263-.02-.492.2-.744.3a1.655,1.655,0,0,1-1.535-.5,2.107,2.107,0,0,0-1.5-.683,4.8,4.8,0,0,0-1,.435c-.252.1-.764.185-.984-.028-.464-.45.615-1.558.809-1.956a10.747,10.747,0,0,1,.434-1c.01-.017.021-.034.033-.051a1.785,1.785,0,0,0-.37.421,10.931,10.931,0,0,0-.433,1c-.194.4-1.273,1.51-.809,1.956.225.214.731.126.983.029a4.632,4.632,0,0,1,1-.435,2.1,2.1,0,0,1,1.5.682,1.658,1.658,0,0,0,1.536.5c.252-.1.472-.318.742-.3a.716.716,0,0,1,.548.514c.307.808-.017,1.785.409,2.538.252.442.719.719,1.028,1.125a1.912,1.912,0,0,1,.377.9,15.7,15.7,0,0,1-.081,1.732,3.033,3.033,0,0,0,2.213,2.665,2.823,2.823,0,0,1,1.034.4,2.974,2.974,0,0,1,.634,1.063,3.112,3.112,0,0,0,3.4,1.568l-.261-.295A3.145,3.145,0,0,1,931.361,289.646Z" transform="translate(-908.13 -273.932)" opacity="0.1"/>
      <path id="Path_24490" data-name="Path 24490" d="M947.83,349.363a22.7,22.7,0,0,0-.921,2.382c-.33-.128-.629-.946-.629-.946l1.757-2.5C948.217,348.547,948.1,348.958,947.83,349.363Z" transform="translate(-932.354 -338.783)" opacity="0.1"/>
      <path id="Path_24491" data-name="Path 24491" d="M948.43,348.772a22.716,22.716,0,0,0-.921,2.382c-.33-.127-.629-.946-.629-.946l1.757-2.5C948.817,347.956,948.7,348.368,948.43,348.772Z" transform="translate(-932.886 -338.259)" fill="#dce7ff"/>
      <path id="Path_24492" data-name="Path 24492" d="M862.046,432.119l-.974-3.072a.287.287,0,0,1,.187-.361h0a.288.288,0,0,1,.36.187l.974,3.069-.1.642Z" transform="translate(-856.718 -410.116)" fill="#be8b87"/>
      <path id="Path_24493" data-name="Path 24493" d="M861.53,428.813h0a.288.288,0,0,1,.361.187l.974,3.069-.073.481.071.074.1-.642-.98-3.069a.288.288,0,0,0-.36-.187h0a.288.288,0,0,0-.15.113A.388.388,0,0,1,861.53,428.813Z" transform="translate(-857.083 -410.151)" fill="#fff" opacity="0.1"/>
      <path id="Path_24494" data-name="Path 24494" d="M822.6,399.313l.547-.173-.08.526-.017.116-.16-.166Z" transform="translate(-817.272 -377.31)" fill="#efc8c4"/>
      <path id="Path_24495" data-name="Path 24495" d="M872.42,461.709a.113.113,0,0,1,.035-.029.049.049,0,0,1,.053,0,.139.139,0,0,1,.019.03.1.1,0,0,0,.07.046l-.017.112Z" transform="translate(-866.802 -439.403)" fill="#727a9c"/>
      <path id="Path_24496" data-name="Path 24496" d="M861.13,441.7s1.954-.011,1.494.82a1.757,1.757,0,0,1-1.179.931Z" transform="translate(-856.781 -421.677)" fill="#ffb0b1"/>
    </g>
    <g id="Group_13946" data-name="Group 13946" transform="translate(29.739 495.771)">
      <path id="Path_24533" data-name="Path 24533" d="M496.868,587.462a3.751,3.751,0,0,1-2.856-3.93.14.14,0,0,1,.28.014,3.474,3.474,0,0,0,2.664,3.65C497.131,587.238,497.042,587.5,496.868,587.462Z" transform="translate(-479.025 -545.27)" fill="#fff"/>
      <path id="Path_24541" data-name="Path 24541" d="M390.2,418.841a1.309,1.309,0,0,0,.778-1.85l4.041-11.213-2.8-.5-3.091,11.179a1.316,1.316,0,0,0,1.074,2.382Z" transform="translate(-386.36 -388.844)" fill="#9e616a"/>
      <path id="Path_24542" data-name="Path 24542" d="M416.606,381.437a1.628,1.628,0,0,0-2.319-.716,1.592,1.592,0,0,0-.677.8l-1.453,2.573a.587.587,0,0,0,.3.837l.076.029.562.216,1.95.749.179.069a.587.587,0,0,0,.783-.42l.23-1.034.411-1.839A1.621,1.621,0,0,0,416.606,381.437Z" transform="translate(-407.082 -367.072)" fill="#74b9ff"/>
      <rect id="Rectangle_1567" data-name="Rectangle 1567" width="6.684" height="6.684" transform="translate(7.379 20.768)" fill="#9e616a"/>
      <path id="Path_24543" data-name="Path 24543" d="M130.027,624h1.317l.627-5.08h-1.944Z" transform="translate(-126.33 -563.28)" fill="#9e616a"/>
      <path id="Path_24544" data-name="Path 24544" d="M399.918,764.691l-1.98-1.367v-.892l-.224.013h0l-1.409.085h0l-.446.026-.255,3.049-.007.1h.934l.018-.1.149-.781.379.781.049.1H399.6a.541.541,0,0,0,.319-.1.55.55,0,0,0,.238-.454A.56.56,0,0,0,399.918,764.691Z" transform="translate(-392.605 -702.489)" fill="#2f2e41"/>
      <path id="Path_24545" data-name="Path 24545" d="M193.255,618.561l1.266.364,2.006-4.709-1.868-.537Z" transform="translate(-181.856 -558.679)" fill="#9e616a"/>
      <path id="Path_24546" data-name="Path 24546" d="M457.809,758.967l-1.525-1.861.247-.858-.219-.049h0l-1.222-.274-.157-.035-.435-.1-1.123,2.954.9.259.406-.8.166.966.565.162,1.539.443.279.08a.562.562,0,0,0,.474-.08.552.552,0,0,0,.216-.3A.558.558,0,0,0,457.809,758.967Z" transform="translate(-443.346 -696.658)" fill="#2f2e41"/>
      <path id="Path_24547" data-name="Path 24547" d="M433.56,299.691a3.54,3.54,0,0,1-2.4,1.774c-.056.012-.112.022-.169.03a3.548,3.548,0,1,1,2.566-1.8Z" transform="translate(-420.096 -291.508)" fill="#9e616a"/>
      <path id="Path_24548" data-name="Path 24548" d="M413.716,491.787a2.014,2.014,0,0,0-.187-1.8l-3.034-15.738L409.3,468.28h-7.162s-4.476,4.954-3.521,11.28l-.267,8.909a3.276,3.276,0,0,0-.179,1.932l.106.5-.041.076a2.547,2.547,0,0,0-.032,2.36l-.3,10.091,2.148-.119,3.163-11.757,2.089-10.563,3.521,8.176.119,1.91-.058,1.683-2.747,9.835,2.328.9Z" transform="translate(-394.631 -444.17)" fill="#2f2e41"/>
      <path id="Path_24549" data-name="Path 24549" d="M427.5,359.614l-1.68-1.69.083-.441a1.047,1.047,0,0,0-.566-1.128l-2.187-1.074a1.045,1.045,0,0,0-1.5.8l-.251,1.938c-.022.041-.1.206-.223.47a15.552,15.552,0,0,0-.937,2.862,13.2,13.2,0,0,0-.256,1.6,9.819,9.819,0,0,0,.268,3.572,1.547,1.547,0,0,0,.2.525,4.835,4.835,0,0,0-.051.516l0,.062.121,0,.833.034,5.947.246.737.03.186.007.43-2.357.124-.681C428.873,364.717,430.441,361.388,427.5,359.614Z" transform="translate(-413.976 -344.843)" fill="#74b9ff"/>
      <path id="Path_24550" data-name="Path 24550" d="M462.09,418a1.309,1.309,0,0,0-.96-1.762l-6.24-10.156-2.138,1.878,6.806,9.392a1.316,1.316,0,0,0,2.532.647Z" transform="translate(-442.801 -389.548)" fill="#9e616a"/>
      <path id="Path_24551" data-name="Path 24551" d="M446.566,390.047l-1.846-2.3a1.632,1.632,0,0,0-2.117-.643,1.271,1.271,0,0,0-.113.06,1.629,1.629,0,0,0-.587,2.222l.331.824.772,1.917a.587.587,0,0,0,.841.288l.071-.041,2.322-1.359.166-.1a.583.583,0,0,0,.28-.4A.591.591,0,0,0,446.566,390.047Z" transform="translate(-433.08 -372.743)" fill="#74b9ff"/>
      <path id="Path_24554" data-name="Path 24554" d="M383.109,273.727a3.579,3.579,0,0,0-3.023-.694,1.1,1.1,0,0,0-.442-.392,3.629,3.629,0,0,0-6.944,1.991c.2,1.09.887,2.034,1.163,3.108a4.436,4.436,0,0,1-2.808,5.13,4.331,4.331,0,0,0,4.748-2.635,9.146,9.146,0,0,0,.4-2.828,6.781,6.781,0,0,1,.553-2.792,2.854,2.854,0,0,1,1.366-1.325,1.089,1.089,0,0,0,.159.981,2.9,2.9,0,0,0-.7,1.548c-.94,1.719.4,3.2,2.123,4.136a3.522,3.522,0,0,0,2.25.392l.072-.307.1.277.325.927q.563.272,1.116.6c-.14-.658-.253-1.314-.331-1.956a7.877,7.877,0,0,1,.54-2.966,4.67,4.67,0,0,0,.256-1.515v-.023l.264.849.962-.411C385.076,274.792,385.255,273.626,383.109,273.727Z" transform="translate(-371.055 -270.36)" fill="#2f2e41"/>
    </g>
  </g>
</svg>
