<svg xmlns="http://www.w3.org/2000/svg" width="48.349" height="139.679" viewBox="0 0 48.349 139.679">
  <g id="myself_illustration" data-name="myself illustration" transform="translate(-303.567)">
    <path id="Path_14748" data-name="Path 14748" d="M864.063,719.979l.587,7.75s-4.3,7.625.229,7.511,4.889-.59,4.889-.59l0-2.384.006-5.126-1.3-7.87Z" transform="translate(-545.657 -597.252)" fill="#2f2e41"/>
    <path id="Path_14749" data-name="Path 14749" d="M961.637,728.424s1.069,3.22.232,5.365-1.2,7.152-.6,7.271,3.456.72,3.456.72,6.912,2.393,9.893,1.443,2.506-2.381,2.506-2.381a3.414,3.414,0,0,0-2.978-2.149c-2.265-.122-7.5-8.712-7.617-10.62S961.637,728.424,961.637,728.424Z" transform="translate(-625.232 -603.767)" fill="#2f2e41"/>
    <circle id="Ellipse_948" data-name="Ellipse 948" cx="10.61" cy="10.61" r="10.61" transform="translate(310.967 4.529)" fill="#ff6584"/>
    <path id="Path_14750" data-name="Path 14750" d="M855.531,191.087s.947,5.247-1.916,6.674,5.36,4.179,5.36,4.179l3.578-.949,2.271-4.885s-2.861-.242-2.14-4.533Z" transform="translate(-537.717 -169.097)" fill="#ffb9b9"/>
    <path id="Path_14751" data-name="Path 14751" d="M855.531,191.087s.947,5.247-1.916,6.674,5.36,4.179,5.36,4.179l3.578-.949,2.271-4.885s-2.861-.242-2.14-4.533Z" transform="translate(-537.717 -169.097)" opacity="0.1"/>
    <path id="Path_14752" data-name="Path 14752" d="M794.353,285.441l-.252,11.444-3,19.548s.107,10.133,3.206,10.733.013-10.849.013-10.849l4.494-16.177.907-14.1Z" transform="translate(-487.529 -245.582)" fill="#ffb9b9"/>
    <circle id="Ellipse_949" data-name="Ellipse 949" cx="6.795" cy="6.795" r="6.795" transform="translate(314.421 11.205)" fill="#ffb9b9"/>
    <path id="Path_14753" data-name="Path 14753" d="M845.61,241.093c1.19,2.028.829,4.412-.482,4.41s-18.953-2.169-18.953-2.169l1.078-4.052s-1.071-1.67-.354-2.742-.71-4.412-.71-4.412l-2.726-13,1.431-.449,2.384-.747,2.625-.823s1.785,2.625,6.2,1.8c0,0,2.742.361,4.3-3.214a4.55,4.55,0,0,1,.993.126,1.285,1.285,0,0,1,.795.472c.144.24.982.4,1.933.514,1.413.163,3.073.208,3.073.208l-1.328,13.231S844.42,239.065,845.61,241.093Z" transform="translate(-513.766 -189.044)" fill="#74b9ff"/>
    <path id="Path_14754" data-name="Path 14754" d="M809.9,233.842h-.954s-3.819,3.095-3.351,10.487c0,0,.357.716,3.1,1.2s3.935-.711,3.935-.711Z" transform="translate(-499.254 -203.755)" fill="#74b9ff"/>
    <path id="Path_14755" data-name="Path 14755" d="M832.484,278.786s-15.258-.972-15.141.816-.961,5.84-.485,6.556,1.053,3.65.344,4.984a10.361,10.361,0,0,0-.949,2.526s-.953-.24-1.672,2.74-4.306,11.559-2.881,15.971,6.041,32.553,6.041,32.553l3.077,18.482s5.125.96,6.916-.945l-1.643-21.7-1.163-23.606s7.96,22.9,9.151,23.616l4.858,24.326s5.482,1.914,7.393-1.183l-2.244-17.766s-1.307-3.459-.828-5.247a3.418,3.418,0,0,0-.831-3.1l-4.857-25.161s-1.427-2.863-.232-5.007-2.131-11.924-2.131-11.924-2.14-5.01-1.421-7.87S832.484,278.786,832.484,278.786Z" transform="translate(-503.962 -239.974)" fill="#2f2e41"/>
    <path id="Path_14756" data-name="Path 14756" d="M942.942,271.129,945.31,284.6a12.286,12.286,0,0,1-.722,5.364c-1.077,3.337-5.259,11.319-5.259,11.319l-2.141-3.818,3.591-12.156-2.963-14.19Z" transform="translate(-605.953 -233.976)" fill="#ffb9b9"/>
    <path id="Path_14757" data-name="Path 14757" d="M754.552,162.576l-2.221,1.133-2.421-6.981,0-3.431,2.384-.747.355,2.87Z" transform="translate(-438.786 -123.661)" fill="#2f2e41"/>
    <path id="Path_14758" data-name="Path 14758" d="M910.915,217.347l-1.948,11.467-3.1,0,2.32-12.449a1.285,1.285,0,0,1,.795.472C909.126,217.073,909.964,217.237,910.915,217.347Z" transform="translate(-580.565 -189.585)" fill="#2f2e41"/>
    <path id="Path_14759" data-name="Path 14759" d="M935.52,223.376l1.432-.714s6.071,7.28,4.279,10.258-7.035,1.064-7.035,1.064Z" transform="translate(-603.528 -194.693)" fill="#74b9ff"/>
    <circle id="Ellipse_950" data-name="Ellipse 950" cx="4.53" cy="4.53" r="4.53" transform="translate(318.133)" fill="#ff6584"/>
    <ellipse id="Ellipse_951" data-name="Ellipse 951" cx="3.457" cy="5.842" rx="3.457" ry="5.842" transform="translate(315.379 14.655) rotate(-89.93)" fill="#ff6584"/>
    <circle id="Ellipse_952" data-name="Ellipse 952" cx="0.596" cy="0.596" r="0.596" transform="translate(314.036 39.57)" fill="#74b9ff"/>
    <circle id="Ellipse_953" data-name="Ellipse 953" cx="0.596" cy="0.596" r="0.596" transform="translate(326.792 39.585)" fill="#74b9ff"/>
  </g>
</svg>
