<svg xmlns="http://www.w3.org/2000/svg" width="70.023" height="144.265" viewBox="0 0 70.023 144.265">
  <g id="loved_one_illustartion" data-name="loved one illustartion" transform="translate(-54 -155.558)">
    <g id="Group_5943" data-name="Group 5943" transform="translate(54 155.558)">
      <path id="Path_14703" data-name="Path 14703" d="M314.573,403.71h4.6l2.19-17.755h-6.793Z" transform="translate(-279.582 -263.906)" fill="#ffb7b7"/>
      <path id="Path_14704" data-name="Path 14704" d="M527.871,638.712h9.065a5.777,5.777,0,0,1,5.777,5.776v.188H527.871Z" transform="translate(-494.054 -500.412)" fill="#2f2e41"/>
      <path id="Path_14705" data-name="Path 14705" d="M235.761,403.71h4.6l2.19-17.755H235.76Z" transform="translate(-225.692 -263.906)" fill="#ffb7b7"/>
      <path id="Path_14706" data-name="Path 14706" d="M449.059,638.712h9.065a5.777,5.777,0,0,1,5.777,5.776v.188H449.059Z" transform="translate(-440.164 -500.412)" fill="#2f2e41"/>
      <path id="Path_14707" data-name="Path 14707" d="M229.832,187.638v46.878l1.187,30.263h9.791l3.263-56.965,6.527,23.439,4.154,32.933,11.868-.593-8.011-75.954Z" transform="translate(-221.639 -128.302)" fill="#2f2e41"/>
      <circle id="Ellipse_943" data-name="Ellipse 943" cx="7.121" cy="7.121" r="7.121" transform="translate(12.454 2.964)" fill="#ffb8b8"/>
      <path id="Path_14708" data-name="Path 14708" d="M248.52,60.275l-1.9,2-1.78,40.054,21.065-.594-5.044-35.01-4.45-4.265-2.258-2.188Z" transform="translate(-231.903 -41.214)" fill="#74b9ff"/>
      <path id="Path_14709" data-name="Path 14709" d="M444.828,269.865l1.6-2.6.478,5.562s3.857,12.461,3.56,23.439,1.483,36.79-.89,37.087-12.461.89-12.461-1.187-.593-57.262-.593-57.262Z" transform="translate(-431.591 -246.429)" fill="#3f3d56"/>
      <path id="Path_14710" data-name="Path 14710" d="M496.6,267.27l4.038,3.189,8.9,3.264s0,37.977,1.78,46.878,5.044,9.791.89,10.088-3.857-1.187-3.857-1.187,2.967-14.835-.89-17.8-11.274-20.175-10.681-29.669S496.01,267.27,496.6,267.27Z" transform="translate(-472.569 -246.429)" fill="#3f3d56"/>
      <path id="Path_14711" data-name="Path 14711" d="M457.576,213.678s.605-1.062.464-4.612,5.264-1.542,9.78-1.88,3.56,5.926,3.56,5.926.326-.372,1.023-3.4a9.871,9.871,0,0,0-.886-6.036c-.466-3.177-2.98-2.159-2.98-2.159a1.318,1.318,0,0,1,.978,1.479c-1.025-1.8-3.539-.779-3.539-.779-3.353-2.1-6.751.667-6.751.667-4.051.919-1.675,4.14-1.675,4.14C453.477,209.087,457.576,213.678,457.576,213.678Z" transform="translate(-444.738 -201.366)" fill="#2f2e41"/>
      <path id="Path_14712" data-name="Path 14712" d="M427.126,430.621a3,3,0,0,0-.533-4.575l1.283-6.743-3.908-1.779-1.678,9.548a3.02,3.02,0,0,0,4.835,3.549Z" transform="translate(-421.593 -349.169)" fill="#ffb7b7"/>
      <path id="Path_14713" data-name="Path 14713" d="M427.345,290.514l-.788-.422s-4.256,1.609-3.959,2.8-2.374,42.724-1.483,44.207,8.011.3,8.011.3Z" transform="translate(-420.932 -262.034)" fill="#3f3d56"/>
      <path id="Path_14714" data-name="Path 14714" d="M543.327,421.1a3,3,0,0,1-.106-4.6l-2.2-6.5,3.624-2.3,2.983,9.224a3.02,3.02,0,0,1-4.3,4.184Z" transform="translate(-503.044 -342.449)" fill="#ffb7b7"/>
      <path id="Path_14715" data-name="Path 14715" d="M527.108,330.113s7.216.19,7.893-1.4-7.715-42.36-7.586-43.577-4.308-2.221-4.308-2.221l-.722.527Z" transform="translate(-490.303 -257.125)" fill="#3f3d56"/>
      <path id="Path_14716" data-name="Path 14716" d="M614.875,355.675l-4.468-21.892-1.962-16.169-4.348,2.813.6,17.819,6.94,18.462a2.419,2.419,0,1,0,3.238-1.032Z" transform="translate(-546.175 -280.853)" fill="#ffb7b7"/>
      <path id="Path_14717" data-name="Path 14717" d="M503.833,359.881l1.237-22.309-.41-16.283,5.748,2.151.96,17.717-4.181,19.275a2.419,2.419,0,1,1-3.354-.55Z" transform="translate(-476.919 -283.366)" fill="#ffb7b7"/>
      <path id="Path_14718" data-name="Path 14718" d="M327.1,422.573h2.937l1.4-11.329H327.1Z" transform="translate(-288.148 -281.198)" fill="#ffb7b7"/>
      <path id="Path_14719" data-name="Path 14719" d="M541.742,645.4h5.785a3.687,3.687,0,0,1,3.686,3.686v.12h-9.471Z" transform="translate(-503.539 -504.986)" fill="#2f2e41"/>
      <path id="Path_14720" data-name="Path 14720" d="M362.281,418.752l2.9.449,3.113-10.982-4.284-.663Z" transform="translate(-312.204 -278.676)" fill="#ffb7b7"/>
      <path id="Path_14721" data-name="Path 14721" d="M576.155,640.966l5.716.884h0a3.686,3.686,0,0,1,3.079,4.206l-.018.118-9.359-1.448Z" transform="translate(-526.672 -501.953)" fill="#2f2e41"/>
      <path id="Path_14722" data-name="Path 14722" d="M517.592,456.058l-.015-.082-10.633-57.489a21.716,21.716,0,0,1,1.919-13.58l6.436-12.871,19.2,2.6,2.266,16.387,8.076,31.261-.008.025L534.489,455.18l-6.782.446,6.007-29.34-11-24.983.776,54.309Z" transform="translate(-479.502 -318.065)" fill="#2f2e41"/>
      <path id="Path_14723" data-name="Path 14723" d="M545.228,321.619l-.127-.2c-.023-.036-2.355-3.55-8.7-1.2-6.48,2.4-11.5-2.232-11.551-2.279l-.025-.023-1.467-13.08-1.732-10.618,5.515-.967,2.711-1.627,10.781-.192,2.837,2.231,4.658.508.426,9.675,0,.011Z" transform="translate(-489.782 -262.95)" fill="#74b9ff"/>
      <path id="Path_14724" data-name="Path 14724" d="M601.156,310.562v-8.285l1.31-2.39.053,0a3.926,3.926,0,0,1,2.713,1.233c1.317,1.339,1.914,3.569,1.774,6.628l0,.056Z" transform="translate(-544.164 -268.73)" fill="#74b9ff"/>
      <path id="Path_14725" data-name="Path 14725" d="M514.411,309.8l-6.676-.8-.005-.077c-.228-3.329.353-5.8,1.727-7.345a4.235,4.235,0,0,1,2.736-1.49l.039,0,1.807,1.643Z" transform="translate(-480.249 -268.865)" fill="#74b9ff"/>
      <path id="Path_14726" data-name="Path 14726" d="M549.142,242.235H531.575a1.365,1.365,0,0,1-1.363-1.363v-6.361a10.146,10.146,0,1,1,20.293,0v6.36A1.365,1.365,0,0,1,549.142,242.235Z" transform="translate(-495.655 -217.092)" fill="#2f2e41"/>
      <circle id="Ellipse_944" data-name="Ellipse 944" cx="7.439" cy="7.439" r="7.439" transform="translate(37.673 10.202)" fill="#ffb7b7"/>
      <path id="Path_14727" data-name="Path 14727" d="M553.208,238.075h-9.821a.758.758,0,0,1-.751-.663l-.127-1.017a.454.454,0,0,0-.862-.136l-.644,1.38a.76.76,0,0,1-.686.437h-1.492a.757.757,0,0,1-.754-.829l.588-6.144a.763.763,0,0,1,.433-.617,15.358,15.358,0,0,1,13.557.008.758.758,0,0,1,.428.581l.881,6.136a.757.757,0,0,1-.75.865Z" transform="translate(-501.025 -220.201)" fill="#2f2e41"/>
    </g>
  </g>
</svg>
