<svg xmlns="http://www.w3.org/2000/svg" width="32.674" height="95.512" viewBox="0 0 32.674 95.512">
  <g id="friend_ill" data-name="friend ill" transform="translate(-212.206 -89.657)">
    <path id="Path_24249" data-name="Path 24249" d="M671.622,384.8a6.277,6.277,0,0,1,1.633.189,9.464,9.464,0,0,1,1.386.579,21.692,21.692,0,0,0,4.583,1.526,5.769,5.769,0,0,1,2.228.77,1.7,1.7,0,0,1,.662,2.072,1.609,1.609,0,0,1-1.207.744,4.062,4.062,0,0,1-1.456-.131,19.607,19.607,0,0,1-4.839-1.8,2.693,2.693,0,0,0-.712-.3,2.727,2.727,0,0,0-.829,0,15.081,15.081,0,0,1-3.017,0,2.266,2.266,0,0,1-1.408-.5,2.446,2.446,0,0,1-.121-2.625C669.074,384.578,670.832,384.794,671.622,384.8Z" transform="translate(-439.511 -281.11)" fill="#a0616a"/>
    <path id="Path_24250" data-name="Path 24250" d="M671.622,384.8a6.277,6.277,0,0,1,1.633.189,9.464,9.464,0,0,1,1.386.579,21.692,21.692,0,0,0,4.583,1.526,5.769,5.769,0,0,1,2.228.77,1.7,1.7,0,0,1,.662,2.072,1.609,1.609,0,0,1-1.207.744,4.062,4.062,0,0,1-1.456-.131,19.607,19.607,0,0,1-4.839-1.8,2.693,2.693,0,0,0-.712-.3,2.727,2.727,0,0,0-.829,0,15.081,15.081,0,0,1-3.017,0,2.266,2.266,0,0,1-1.408-.5,2.446,2.446,0,0,1-.121-2.625C669.074,384.578,670.832,384.794,671.622,384.8Z" transform="translate(-439.511 -281.11)" opacity="0.05"/>
    <path id="Path_24251" data-name="Path 24251" d="M601.974,736.532l-1.327,1.73a2.351,2.351,0,0,0-.525.977,1.519,1.519,0,0,0,.768,1.478,3.289,3.289,0,0,0,1.7.392,8.126,8.126,0,0,0,1.529-.127.877.877,0,0,0,.358-.571,2.488,2.488,0,0,1,.79-2.114,3.041,3.041,0,0,0,.386-.368.924.924,0,0,0,.191-.495,1.943,1.943,0,0,0-.068-.547l-.549-2.4a.251.251,0,0,0-.068-.147.255.255,0,0,0-.173-.04l-1.484.022c-.308,0-.6-.018-.778.278a3.283,3.283,0,0,0-.163.873,2.013,2.013,0,0,1-.251.579C602.251,736.156,601.974,736.424,601.974,736.532Z" transform="translate(-385.108 -560.345)" fill="#74b9ff"/>
    <path id="Path_24252" data-name="Path 24252" d="M660.712,736.54l1.327,1.732a2.353,2.353,0,0,1,.525.977,1.519,1.519,0,0,1-.768,1.478,3.288,3.288,0,0,1-1.7.392,8.132,8.132,0,0,1-1.529-.127.877.877,0,0,1-.358-.571,2.488,2.488,0,0,0-.79-2.114,3.045,3.045,0,0,1-.386-.368.923.923,0,0,1-.2-.495,1.869,1.869,0,0,1,.068-.547l.569-2.4a.251.251,0,0,1,.068-.147.255.255,0,0,1,.173-.04l1.484.022c.308,0,.6-.018.778.278a3.283,3.283,0,0,1,.163.873,2.013,2.013,0,0,0,.251.579C660.434,736.164,660.712,736.432,660.712,736.54Z" transform="translate(-430.423 -560.353)" fill="#74b9ff"/>
    <path id="Path_24253" data-name="Path 24253" d="M599.481,522.549a12.488,12.488,0,0,0-1.04,4.163,24.854,24.854,0,0,0,.042,3.192c.177,3.192.356,6.39.8,9.557a22.815,22.815,0,0,1,.314,2.977,25.162,25.162,0,0,1-.436,3.833c-.2,1.339-.358,2.689-.495,4.038a25.883,25.883,0,0,0-.171,4.684c.292,3.62,2.011,7.039,2.279,10.659a3.848,3.848,0,0,1,3.508-.111c.151-1.866.438-3.783.589-5.649a27.159,27.159,0,0,0,.129-2.8c-.06-2.679-.909-5.3-.881-7.982a24.5,24.5,0,0,1,.513-4.133,73.763,73.763,0,0,1,2.44-10.458c.65,3.1,1.187,6.156,1.834,9.251a38.213,38.213,0,0,1,.8,4.827,62.732,62.732,0,0,1-.37,8.616,18.33,18.33,0,0,0,1.068,8.485,3.387,3.387,0,0,1,3.485-.28c-.151-4.714-.489-9.435.6-14.02.388-1.609.927-3.194,1.408-4.783,1.171-3.821.676-9.209,1.231-13.169a18.438,18.438,0,0,0,.229-4.073c-.2-2.393.149-3.168-.849-5.352a3.482,3.482,0,0,0-.8-1.257,3.684,3.684,0,0,0-2.472-.654C608.7,522.05,604.029,522.209,599.481,522.549Z" transform="translate(-383.754 -390.821)" fill="#46455b"/>
    <path id="Path_24254" data-name="Path 24254" d="M605.615,385.824a2.188,2.188,0,0,1-1.583-.133,1.756,1.756,0,0,1-.65-1.374,5.819,5.819,0,0,0-.414-2.4c-.131-.219-.306-.4-.43-.632-.093-.165-.157-.344-.263-.5a1.955,1.955,0,0,0-1.257-.67.887.887,0,0,0-.837.117,1.064,1.064,0,0,0-.2.539c-.235,1.128-1.03,2.063-1.374,3.162a8.311,8.311,0,0,0-.255,2.446,10.932,10.932,0,0,0,.181,2.512,10.381,10.381,0,0,1,.706,3.16c-.247,2.683.561,5.207.161,7.87a75.852,75.852,0,0,1-2.168,9.867q9.553.263,19.106-.028a27.573,27.573,0,0,0-1.987-3.69,14.2,14.2,0,0,1-1.293-6.9c.066-2.363.457-4.706.644-7.063a40.873,40.873,0,0,0-.5-10.344,1.853,1.853,0,0,0-.3-.847c-.489-.627-1.47-.424-2.226-.668-.7-.225-1.259-.865-2-.9-.943-.054-1.641.931-1.788,1.864s.056,1.9-.08,2.832S606.548,385.665,605.615,385.824Z" transform="translate(-382.812 -276.774)" fill="#74b9ff"/>
    <path id="Path_24255" data-name="Path 24255" d="M618.522,369.559a5.993,5.993,0,0,1,.634,2.615c.048.9,0,1.81.113,2.717a6.861,6.861,0,0,1,.089,2.952,16,16,0,0,0,5.6-1.436c1.782-.77,3.471-1.728,5.2-2.615a1.832,1.832,0,0,1-1.074-.541c-.3-.28-.543-.6-.829-.9a13.234,13.234,0,0,0-2.932-1.893,4.5,4.5,0,0,1-2.293-2.522.477.477,0,0,0-.159-.3.436.436,0,0,0-.348,0q-1.291.372-2.566.792-.63.2-1.255.426C618.123,369.068,618.264,369.1,618.522,369.559Z" transform="translate(-399.642 -267.396)" fill="#a0616a"/>
    <path id="Path_24256" data-name="Path 24256" d="M618.522,369.559a5.993,5.993,0,0,1,.634,2.615c.048.9,0,1.81.113,2.717a6.861,6.861,0,0,1,.089,2.952,16,16,0,0,0,5.6-1.436c1.782-.77,3.471-1.728,5.2-2.615a1.832,1.832,0,0,1-1.074-.541c-.3-.28-.543-.6-.829-.9a13.234,13.234,0,0,0-2.932-1.893,4.5,4.5,0,0,1-2.293-2.522.477.477,0,0,0-.159-.3.436.436,0,0,0-.348,0q-1.291.372-2.566.792-.63.2-1.255.426C618.123,369.068,618.264,369.1,618.522,369.559Z" transform="translate(-399.642 -267.396)" opacity="0.1"/>
    <circle id="Ellipse_1876" data-name="Ellipse 1876" cx="4.469" cy="4.469" r="4.469" transform="translate(215.989 93.791)" fill="#a0616a"/>
    <path id="Path_24257" data-name="Path 24257" d="M596.6,322.028a17.768,17.768,0,0,1,.668,7.039,10.036,10.036,0,0,0,5.326-4.706,6.006,6.006,0,0,0-.945-6.744,7.441,7.441,0,0,0-2.188-1.366,11.035,11.035,0,0,0-6.365-.955,8.65,8.65,0,0,0-6.858,8.5c.06,1.85.9,3.835,2.615,4.571-1.5-.65,1.436-4.8,2.317-5.125C592.942,322.593,595.367,324.377,596.6,322.028Z" transform="translate(-374.024 -225.5)" fill="#46455b"/>
    <circle id="Ellipse_1877" data-name="Ellipse 1877" cx="5.816" cy="5.816" r="5.816" transform="translate(223.571 90.686)" fill="#f86d70"/>
    <path id="Path_24258" data-name="Path 24258" d="M627.613,752.3a7.4,7.4,0,0,0-.994.917,1.556,1.556,0,0,0-.543.935c-.026.589.6,1.006,1.193,1.088,1.323.211,2.6-.487,3.882-.865a14.194,14.194,0,0,0,3.184-.983.963.963,0,0,0,.4-.368,1.054,1.054,0,0,0,.072-.513,9.212,9.212,0,0,0-.758-3.859,4.641,4.641,0,0,0-2.816,1.366C630.17,751.166,628.84,751.417,627.613,752.3Z" transform="translate(-405.856 -571.809)" fill="#2f2e41"/>
    <path id="Path_24259" data-name="Path 24259" d="M611.393,541.036a71.612,71.612,0,0,0-1.651,16.349,29.577,29.577,0,0,0,.585,7.588,30.951,30.951,0,0,0,1.476,4.173,105.845,105.845,0,0,0,4.515,10.08c.768,1.446,1.631,2.966,1.514,4.6a24.358,24.358,0,0,1,4.051-.267,18.007,18.007,0,0,0-.766-8.662c-.6-1.762-1.486-3.419-2.176-5.149a19.572,19.572,0,0,1-.487-14.209c.471-1.207,1.09-2.345,1.541-3.558,1.283-3.453,1.126-7.24.951-10.931A28.263,28.263,0,0,0,611.393,541.036Z" transform="translate(-392.797 -405.63)" fill="#f86d70"/>
    <path id="Path_24260" data-name="Path 24260" d="M631.319,762a4.523,4.523,0,0,0-2.182,1.778.936.936,0,0,0-.107.438c.022.37.374.629.71.786a5.421,5.421,0,0,0,3.218.3,16.232,16.232,0,0,0,3.111-1.006l3.246-1.309a.742.742,0,0,0,.306-.183.73.73,0,0,0,.129-.442,13.921,13.921,0,0,0-.151-3.115,16.441,16.441,0,0,0-4.258.2C633.941,759.925,632.644,761.3,631.319,762Z" transform="translate(-408.216 -580.248)" fill="#2f2e41"/>
    <path id="Path_24261" data-name="Path 24261" d="M651.384,551.1c.634,4.573.133,9.251.851,13.813.175,1.116.424,2.224.543,3.349a29.5,29.5,0,0,1,.078,3.652c-.093,4.515-.2,9.157-1.975,13.312a13.045,13.045,0,0,0,4.175,1.054c.467.038,1.058-.03,1.207-.473a1.371,1.371,0,0,0,0-.579c-.149-1.382.678-2.651,1.335-3.876a18.285,18.285,0,0,0,1.983-5.969c.951-6.422-1.543-13.073-.086-19.4.587-2.552,1.794-4.921,2.48-7.441s.784-5.416-.7-7.57a1.9,1.9,0,0,0-.716-.686,2.213,2.213,0,0,0-.744-.159,34.577,34.577,0,0,0-5.533-.058c-1.08.074-3.956-.064-4.612.955s.358,3.477.6,4.525C650.674,547.387,651.125,549.227,651.384,551.1Z" transform="translate(-424.529 -405.11)" fill="#f86d70"/>
    <path id="Path_24262" data-name="Path 24262" d="M643.206,367.358a4.226,4.226,0,0,1-.591,3.017c-.6.724-1.6.992-2.263,1.651a3.03,3.03,0,0,0-.678,2.958,4.4,4.4,0,0,0,1.955,2.43,8.213,8.213,0,0,0,2.993,1.03,3.552,3.552,0,0,0,2.926-.551,16.316,16.316,0,0,0,4.254-3.62,2.135,2.135,0,0,0,.654-1.516.368.368,0,0,0-.082-.215.5.5,0,0,0-.255-.1,3.613,3.613,0,0,1-2.011-1.9,7.039,7.039,0,0,1-.835-1.77c-.372-1.366.058-2.878-.446-4.2a.551.551,0,0,0-.227-.314.6.6,0,0,0-.253-.048,35.148,35.148,0,0,0-4.509.113c-.654.056-1.032.062-.909.794A22.113,22.113,0,0,1,643.206,367.358Z" transform="translate(-416.618 -264.66)" fill="#fbbebe"/>
    <path id="Path_24263" data-name="Path 24263" d="M643.206,367.358a4.226,4.226,0,0,1-.591,3.017c-.6.724-1.6.992-2.263,1.651a3.03,3.03,0,0,0-.678,2.958,4.4,4.4,0,0,0,1.955,2.43,8.213,8.213,0,0,0,2.993,1.03,3.552,3.552,0,0,0,2.926-.551,16.316,16.316,0,0,0,4.254-3.62,2.135,2.135,0,0,0,.654-1.516.368.368,0,0,0-.082-.215.5.5,0,0,0-.255-.1,3.613,3.613,0,0,1-2.011-1.9,7.039,7.039,0,0,1-.835-1.77c-.372-1.366.058-2.878-.446-4.2a.551.551,0,0,0-.227-.314.6.6,0,0,0-.253-.048,35.148,35.148,0,0,0-4.509.113c-.654.056-1.032.062-.909.794A22.113,22.113,0,0,1,643.206,367.358Z" transform="translate(-416.618 -264.66)" opacity="0.1"/>
    <circle id="Ellipse_1878" data-name="Ellipse 1878" cx="4.469" cy="4.469" r="4.469" transform="translate(224.919 94.726)" fill="#fbbebe"/>
    <path id="Path_24264" data-name="Path 24264" d="M622.933,407.387a8.71,8.71,0,0,1-2.476-.656,2.961,2.961,0,0,1-1.647-1.864c-.113-.479-.06-.983-.133-1.47a1.387,1.387,0,0,0-.782-1.166,1.637,1.637,0,0,0-.72-.036,14.887,14.887,0,0,0-1.547.245.615.615,0,0,0-.573.792c.1,3.218.768,6.418.593,9.634a37.035,37.035,0,0,1-2.057,9.1l-2.184,6.9a3.083,3.083,0,0,0-.211,1.372A2.6,2.6,0,0,0,612.949,432a15.493,15.493,0,0,0,4.994.865l4.515.278a22.241,22.241,0,0,0,4.075,0,11.464,11.464,0,0,0,4.9-1.784c.4-2.212-.569-4.425-1.106-6.609a38.149,38.149,0,0,1-.837-6.9,10.771,10.771,0,0,1,.07-2.729c.135-.676.4-1.321.561-1.991a18.552,18.552,0,0,0,.288-3.984,27.772,27.772,0,0,1,.354-3.809,4.546,4.546,0,0,0,.056-1.973,1.419,1.419,0,0,0-1.44-1.106c-.823.135-1.128,1.12-1.462,1.887C627.108,406.018,624.946,407.715,622.933,407.387Z" transform="translate(-393.954 -295.013)" fill="#2f2e41"/>
    <path id="Path_24265" data-name="Path 24265" d="M611.96,408.626a9.765,9.765,0,0,0-.332,2.267q-.161,2.54-.181,5.088c-.012,1.3.1,2.8,1.166,3.548a2.138,2.138,0,0,0,2.892-.539c.726-1.086.284-2.528-.014-3.8a14.57,14.57,0,0,1-.054-6.361c.2-.893,1.376-4.143-.658-3.353A5.05,5.05,0,0,0,611.96,408.626Z" transform="translate(-394.169 -297.553)" fill="#fbbebe"/>
    <path id="Path_24266" data-name="Path 24266" d="M611.96,410.236a9.748,9.748,0,0,0-.332,2.267q-.161,2.54-.181,5.086c-.012,1.3.1,2.8,1.166,3.55a2.142,2.142,0,0,0,2.892-.539c.726-1.088.284-2.53-.014-3.8a14.58,14.58,0,0,1-.054-6.363c.2-.893,1.376-4.141-.658-3.351A5.05,5.05,0,0,0,611.96,410.236Z" transform="translate(-394.169 -298.839)" opacity="0.05"/>
    <path id="Path_24267" data-name="Path 24267" d="M705.749,408.626a9.659,9.659,0,0,1,.332,2.267q.159,2.54.183,5.088c0,1.3-.1,2.8-1.166,3.548a2.136,2.136,0,0,1-2.894-.539c-.728-1.086-.284-2.528.012-3.8a14.57,14.57,0,0,0,.056-6.361c-.2-.893-1.378-4.143.656-3.353A5.087,5.087,0,0,1,705.749,408.626Z" transform="translate(-466.311 -297.553)" fill="#fbbebe"/>
    <path id="Path_24268" data-name="Path 24268" d="M705.749,408.626a9.659,9.659,0,0,1,.332,2.267q.159,2.54.183,5.088c0,1.3-.1,2.8-1.166,3.548a2.136,2.136,0,0,1-2.894-.539c-.728-1.086-.284-2.528.012-3.8a14.57,14.57,0,0,0,.056-6.361c-.2-.893-1.378-4.143.656-3.353A5.087,5.087,0,0,1,705.749,408.626Z" transform="translate(-466.311 -297.553)" opacity="0.05"/>
    <path id="Path_24269" data-name="Path 24269" d="M701.942,401.575a.571.571,0,0,1,.414.048.921.921,0,0,1,.282.4,11.428,11.428,0,0,1,.5,4.941.8.8,0,0,1-.089.4.362.362,0,0,1-.271.137,5.868,5.868,0,0,1-3.3-.5,1.9,1.9,0,0,1-.6-.4c-.627-.67-1.207-3.335-.581-4.266C698.867,401.482,701.109,401.692,701.942,401.575Z" transform="translate(-463.333 -294.522)" fill="#2f2e41"/>
    <path id="Path_24270" data-name="Path 24270" d="M613.156,403.179a.6.6,0,0,0-.412.044.891.891,0,0,0-.284.39,10.263,10.263,0,0,0-.5,4.676.758.758,0,0,0,.089.384.364.364,0,0,0,.271.129,6.14,6.14,0,0,0,3.3-.471,1.858,1.858,0,0,0,.6-.384c.628-.634,1.207-3.158.581-4.038C616.233,403.091,613.988,403.29,613.156,403.179Z" transform="translate(-394.542 -295.805)" fill="#2f2e41"/>
    <path id="Path_24271" data-name="Path 24271" d="M648.563,326.592a5.908,5.908,0,0,0-3.9.5,5.066,5.066,0,0,0-2.025,2.023,16.8,16.8,0,0,0-1.368,2.671,8.08,8.08,0,0,0-.662,2.759,19.492,19.492,0,0,0,.766,4.167,4.558,4.558,0,0,1-.74,4.022c1.585-.088,2.574-1.858,2.631-3.443s-.5-3.139-.535-4.726a3.868,3.868,0,0,1,.378-1.923c.855-1.595,3.031-1.884,4.358-3.115.827,2.108,1.667,4.326,1.386,6.573a19.283,19.283,0,0,0-.535,3.487,4.141,4.141,0,0,0,3.2,3.719c-.517-1.826-1.028-3.821-.324-5.577.3-.738.786-1.382,1.134-2.1a6.058,6.058,0,0,0-.358-5.832c-1.108-1.707-3.067-3.395-5.1-3.326" transform="translate(-417.468 -234.515)" fill="#f86d70"/>
    <path id="Path_24272" data-name="Path 24272" d="M593.867,386.811a5.191,5.191,0,0,0-.414,2.564,17.44,17.44,0,0,0,1.04,7.053,2.675,2.675,0,0,0,1.046,1.317,2.627,2.627,0,0,0,1.287.249c4.855-.032,8.827-4.425,13.676-4.592,1.973-.07,3.926.575,5.9.471.8-.044,1.81-.451,1.78-1.259-.024-.623-.674-1.018-1.261-1.229a16.772,16.772,0,0,0-5.551-.7,9.339,9.339,0,0,0-2.134.145,19.294,19.294,0,0,0-2.263.8,18.218,18.218,0,0,1-3.045.682l-5.161.851a1.133,1.133,0,0,1-.8-.066.989.989,0,0,1-.348-.525,3.673,3.673,0,0,1-.115-2.011c.213-.929.79-1.844.549-2.767C597.6,386.069,594.859,385,593.867,386.811Z" transform="translate(-379.793 -281.991)" fill="#a0616a"/>
    <path id="Path_24273" data-name="Path 24273" d="M593.867,386.811a5.191,5.191,0,0,0-.414,2.564,17.44,17.44,0,0,0,1.04,7.053,2.675,2.675,0,0,0,1.046,1.317,2.627,2.627,0,0,0,1.287.249c4.855-.032,8.827-4.425,13.676-4.592,1.973-.07,3.926.575,5.9.471.8-.044,1.81-.451,1.78-1.259-.024-.623-.674-1.018-1.261-1.229a16.772,16.772,0,0,0-5.551-.7,9.339,9.339,0,0,0-2.134.145,19.294,19.294,0,0,0-2.263.8,18.218,18.218,0,0,1-3.045.682l-5.161.851a1.133,1.133,0,0,1-.8-.066.989.989,0,0,1-.348-.525,3.673,3.673,0,0,1-.115-2.011c.213-.929.79-1.844.549-2.767C597.6,386.069,594.859,385,593.867,386.811Z" transform="translate(-379.793 -281.991)" opacity="0.1"/>
    <path id="Path_24274" data-name="Path 24274" d="M593.673,381.189a1.82,1.82,0,0,0-.78.02,1.609,1.609,0,0,0-.748.589,4.494,4.494,0,0,0-.744,1.392,3.411,3.411,0,0,1,3.28.652,5.987,5.987,0,0,1,1.824,2.93c-.056-.175.237-.77.282-.971a8.53,8.53,0,0,0,.173-1.1,7.711,7.711,0,0,0-.086-2.172C596.635,381.372,594.65,381.326,593.673,381.189Z" transform="translate(-378.154 -278.226)" fill="#74b9ff"/>
    <path id="Path_24275" data-name="Path 24275" d="M656.167,396.864a11.237,11.237,0,0,0-1.822-.072l-7.441.1a11.325,11.325,0,0,0-2.184.171,9.665,9.665,0,0,0-1.43.451,23.765,23.765,0,0,0-3.479,1.619c-.825.477-1.693,1.156-1.74,2.106a4.926,4.926,0,0,0,2.914-.1c.947-.276,1.852-.69,2.816-.939a17.1,17.1,0,0,1,6.436,0c1.317.167,2.637.336,3.936.613.831.179,1.653.4,2.492.539a3.365,3.365,0,0,0,3.218-.78C661.621,398.36,657.707,397.091,656.167,396.864Z" transform="translate(-415.438 -290.708)" fill="#a0616a"/>
    <path id="Path_24276" data-name="Path 24276" d="M684.694,403.545c-.911.272-1.81-.5-2.291-1.319a11.727,11.727,0,0,1-1.154-3.578,38.224,38.224,0,0,1-.734-4.388,13.3,13.3,0,0,0-.358-2.687,22.59,22.59,0,0,0-1.321-2.775,8.715,8.715,0,0,1-.728-2.566,2.224,2.224,0,0,1,.266-1.609,1.56,1.56,0,0,1,1.724-.44A2.858,2.858,0,0,1,681.5,385.4c1.245,1.931,1.02,4.445,1.758,6.621a21.411,21.411,0,0,0,1.277,2.709c.473.923.847,1.891,1.311,2.816a11.824,11.824,0,0,1,.951,1.724C687.224,400.665,686.152,403.109,684.694,403.545Z" transform="translate(-447.394 -280.57)" fill="#fbbebe"/>
    <path id="Path_24277" data-name="Path 24277" d="M615.851,415.635c.911.272,1.81-.5,2.293-1.319a11.782,11.782,0,0,0,1.152-3.578,38.232,38.232,0,0,0,.734-4.386,13.213,13.213,0,0,1,.36-2.689,22.284,22.284,0,0,1,1.319-2.775,8.7,8.7,0,0,0,.728-2.566,2.19,2.19,0,0,0-.263-1.6,1.563,1.563,0,0,0-1.726-.44,2.858,2.858,0,0,0-1.408,1.217c-1.245,1.931-1.02,4.445-1.758,6.621a21.136,21.136,0,0,1-1.277,2.709c-.473.923-.847,1.891-1.311,2.816a11.625,11.625,0,0,0-.949,1.724C613.319,412.755,614.4,415.2,615.851,415.635Z" transform="translate(-395.93 -290.237)" fill="#fbbebe"/>
  </g>
</svg>
