<svg id="Layer_1" data-name="Layer 1" xmlns="http://www.w3.org/2000/svg" xmlns:xlink="http://www.w3.org/1999/xlink" viewBox="0 0 1084.76 428"><defs><clipPath id="clip-path" transform="translate(-0.2 -62)"><rect width="1084" height="490" fill="none"/></clipPath></defs><g clip-path="url(#clip-path)"><path d="M1083.64,451.25c-10-7.69-17.25-27.84-17.25-51.46,0-23.44,7.16-43.46,17.49-51.64,1.46-1.16.07,27.61,0,55.14C1083.82,428.39,1085.19,452.43,1083.64,451.25Z" transform="translate(-0.2 -62)" fill="#a29bfe"/><rect x="1075.3" y="390.41" width="0.8" height="18.75" transform="translate(215.46 1097.58) rotate(-61.85)" fill="#3f3d56"/><path d="M1079.9,443.52a16.29,16.29,0,1,0-31.26,6.41l-.05-.05a16.47,16.47,0,0,0,3,4.59h0l.3.32a16.23,16.23,0,0,0,11.49,5l-.55,29.9h1.7l-.34-19.73,2.46-1.3-.38-.71-2.1,1.1-.16-9.26A16.28,16.28,0,0,0,1079.9,443.52Z" transform="translate(-0.2 -62)" fill="#b3bfb9"/><path d="M969.08,430.87A20.75,20.75,0,1,0,929.25,439l-.06-.06a20.68,20.68,0,0,0,3.78,5.85h0l.39.41A20.69,20.69,0,0,0,948,451.61l-.7,38.08h2.17L949,464.56l3.13-1.65-.47-.91L949,463.41l-.21-11.8a20.76,20.76,0,0,0,20.29-20.74Z" transform="translate(-0.2 -62)" fill="#b3bfb9"/><path d="M854.35,443.51a16.29,16.29,0,1,0-31.26,6.42l-.05-.06a16.25,16.25,0,0,0,3,4.59h0l.3.33a16.19,16.19,0,0,0,11.49,5l-.55,29.89H839L838.61,470l2.46-1.29-.37-.72-2.1,1.11-.17-9.26A16.29,16.29,0,0,0,854.35,443.51Z" transform="translate(-0.2 -62)" fill="#b3bfb9"/><circle cx="1041.6" cy="25.01" r="25.01" fill="#ff6584"/><rect x="892.98" y="420.63" width="9.36" height="2.48" transform="translate(-93.37 404.82) rotate(-27.77)" fill="#3f3d56"/><path d="M988.37,190.23l3.72-3c-2.89-.31-4.08,1.26-4.57,2.51a6.38,6.38,0,0,0-4.72.29l7.45,2.7a5.68,5.68,0,0,0-1.88-2.5Z" transform="translate(-0.2 -62)" fill="#3f3d56"/><path d="M769.37,243.92l3.72-3c-2.89-.32-4.08,1.26-4.57,2.51a6.33,6.33,0,0,0-4.72.29l7.45,2.7A5.68,5.68,0,0,0,769.37,243.92Z" transform="translate(-0.2 -62)" fill="#3f3d56"/><path d="M1009,338.06l3.72-3c-2.89-.32-4.08,1.26-4.56,2.5a6.33,6.33,0,0,0-4.72.3l7.45,2.7A5.65,5.65,0,0,0,1009,338Z" transform="translate(-0.2 -62)" fill="#3f3d56"/><path d="M928.5,246.69l3.72-3c-2.89-.32-4.08,1.26-4.56,2.51a6.33,6.33,0,0,0-4.72.29l7.45,2.7a5.64,5.64,0,0,0-1.89-2.5Z" transform="translate(-0.2 -62)" fill="#3f3d56"/><path d="M839.68,149.69l3.72-3c-2.89-.32-4.08,1.26-4.56,2.51a6.33,6.33,0,0,0-4.72.29l7.45,2.7a5.7,5.7,0,0,0-1.89-2.5Z" transform="translate(-0.2 -62)" fill="#3f3d56"/><path d="M835.78,482.36s.18-3.79,3.89-3.35" transform="translate(-0.2 -62)" fill="#3f3d56"/><circle cx="834.54" cy="414.9" r="1.86" fill="#a29bfe"/><rect x="834.23" y="418.02" width="0.52" height="3.67" fill="#3f3d56"/><path d="M707.2,481.84s.18-3.79,3.88-3.35" transform="translate(-0.2 -62)" fill="#3f3d56"/><circle cx="705.95" cy="414.38" r="1.86" fill="#a29bfe"/><rect x="705.65" y="417.5" width="0.52" height="3.67" fill="#3f3d56"/><path d="M737.57,482.1s.19-3.79,3.89-3.35" transform="translate(-0.2 -62)" fill="#3f3d56"/><circle cx="736.33" cy="414.64" r="1.86" fill="#a29bfe"/><rect x="736.02" y="417.76" width="0.52" height="3.67" fill="#3f3d56"/><path d="M886.56,483.74s.18-3.79,3.88-3.35" transform="translate(-0.2 -62)" fill="#3f3d56"/><path d="M851.73,483.74s.18-3.79,3.88-3.35" transform="translate(-0.2 -62)" fill="#3f3d56"/><path d="M724.71,483.74s.18-3.79,3.89-3.35" transform="translate(-0.2 -62)" fill="#3f3d56"/><path d="M902.27,483.74s.18-3.79,3.89-3.35" transform="translate(-0.2 -62)" fill="#3f3d56"/><path d="M894.94,483.74s.18-3.79,3.89-3.35" transform="translate(-0.2 -62)" fill="#3f3d56"/><path d="M879.81,483.74s-.18-3.79-3.89-3.35" transform="translate(-0.2 -62)" fill="#3f3d56"/><path d="M819.58,483.74s-.18-3.79-3.89-3.35" transform="translate(-0.2 -62)" fill="#3f3d56"/><path d="M769.56,483.74s-.19-3.79-3.89-3.35" transform="translate(-0.2 -62)" fill="#3f3d56"/><path d="M716.39,483.74s-.18-3.79-3.89-3.35" transform="translate(-0.2 -62)" fill="#3f3d56"/><path d="M918.05,483.74s-.18-3.79-3.89-3.35" transform="translate(-0.2 -62)" fill="#3f3d56"/><path d="M895.52,484s-.18-3.79-3.89-3.35" transform="translate(-0.2 -62)" fill="#3f3d56"/><path d="M1014.84,482.36s-.18-3.79-3.89-3.35" transform="translate(-0.2 -62)" fill="#3f3d56"/><circle cx="1015.69" cy="414.9" r="1.86" fill="#a29bfe"/><rect x="1015.47" y="418.02" width="0.52" height="3.67" fill="#3f3d56"/><path d="M964.07,483.74s-.18-3.79-3.89-3.35" transform="translate(-0.2 -62)" fill="#3f3d56"/><path d="M998.9,483.74s-.18-3.79-3.89-3.35" transform="translate(-0.2 -62)" fill="#3f3d56"/><path d="M948.35,483.74s-.18-3.79-3.88-3.35" transform="translate(-0.2 -62)" fill="#3f3d56"/><path d="M955.69,483.74s-.18-3.79-3.89-3.35" transform="translate(-0.2 -62)" fill="#3f3d56"/><path d="M970.81,483.74s.19-3.79,3.89-3.35" transform="translate(-0.2 -62)" fill="#3f3d56"/><path d="M1031.05,483.74s.18-3.79,3.89-3.35" transform="translate(-0.2 -62)" fill="#3f3d56"/><path d="M1081.07,483.74s.18-3.79,3.89-3.35" transform="translate(-0.2 -62)" fill="#3f3d56"/><path d="M932.58,483.74s.18-3.79,3.89-3.35" transform="translate(-0.2 -62)" fill="#3f3d56"/><path d="M955.1,484s.19-3.79,3.89-3.35" transform="translate(-0.2 -62)" fill="#3f3d56"/><path d="M780,152.78h-2.6a1.82,1.82,0,0,0,.17-3.63H756.36a1.82,1.82,0,0,0-.38,3.62h3a1.82,1.82,0,0,0,0,3.64h-3.63A1.82,1.82,0,1,0,755,160h21.39a1.82,1.82,0,0,0,.18-3.63H780a1.82,1.82,0,1,0,0-3.64Z" transform="translate(-0.2 -62)" fill="#252223" opacity="0.1" style="isolation:isolate"/><path d="M872.69,198.39H870.1a1.82,1.82,0,0,0,.17-3.63H849.09a1.82,1.82,0,0,0-.18,3.63h0a.49.49,0,0,0,.17,0h2.59a1.82,1.82,0,1,0,0,3.64h-3.63a1.82,1.82,0,1,0-.38,3.62h21.39a1.82,1.82,0,0,0,.17-3.63h3.46a1.82,1.82,0,0,0,0-3.64Z" transform="translate(-0.2 -62)" fill="#252223" opacity="0.1" style="isolation:isolate"/><path d="M1030.64,138.84h-2.59a1.82,1.82,0,0,0,.38-3.62h-.21a.49.49,0,0,0-.17,0h-21a1.82,1.82,0,1,0-.38,3.62h3a1.82,1.82,0,0,0-.27,3.63H1006a1.82,1.82,0,0,0-.17,3.63H1027a1.82,1.82,0,0,0,.38-3.62h3.25a1.82,1.82,0,0,0,.27-3.63h-.26Z" transform="translate(-0.2 -62)" fill="#252223" opacity="0.1" style="isolation:isolate"/><path d="M927.58,395.32c0-17.87-14.49-60.29-32.36-60.29s-32.36,42.42-32.36,60.29a32.36,32.36,0,0,0,64.72,0Z" transform="translate(-0.2 -62)" fill="#c0e3a8"/><path d="M895.22,474.05a.27.27,0,0,0,.26-.27V362.21a.27.27,0,0,0-.53,0V473.78a.27.27,0,0,0,.27.27Z" transform="translate(-0.2 -62)" fill="#3f3d56"/><path d="M895.22,383.75a.27.27,0,0,0,.19-.08l12.8-12.8a.27.27,0,0,0-.37-.38h0L895,383.3a.28.28,0,0,0,0,.38.32.32,0,0,0,.19.07Z" transform="translate(-0.2 -62)" fill="#3f3d56"/><path d="M895.22,405.93a.28.28,0,0,0,.26-.28.25.25,0,0,0-.08-.18L874,384a.28.28,0,0,0-.38,0,.29.29,0,0,0,0,.37L895,405.85a.27.27,0,0,0,.19.08Z" transform="translate(-0.2 -62)" fill="#3f3d56"/><path d="M801.14,411.27c0-17.87-14.49-60.28-32.36-60.28s-32.36,42.41-32.36,60.28a32.36,32.36,0,0,0,64.72.09v-.09Z" transform="translate(-0.2 -62)" fill="#c0e3a8"/><path d="M768.78,490a.27.27,0,0,0,.27-.27h0V378.16a.27.27,0,1,0-.54,0h0V489.73a.27.27,0,0,0,.27.27Z" transform="translate(-0.2 -62)" fill="#3f3d56"/><path d="M768.78,399.7a.26.26,0,0,0,.19-.07l12.81-12.81a.27.27,0,0,0-.38-.38h0l-12.81,12.81a.28.28,0,0,0,0,.38A.26.26,0,0,0,768.78,399.7Z" transform="translate(-0.2 -62)" fill="#3f3d56"/><path d="M768.78,421.88a.28.28,0,0,0,.26-.29.28.28,0,0,0-.07-.17L747.52,400a.26.26,0,0,0-.37.08.27.27,0,0,0,0,.3L768.6,421.8a.25.25,0,0,0,.18.08Z" transform="translate(-0.2 -62)" fill="#3f3d56"/><path d="M739.48,433c0-12.84-10.41-43.32-23.27-43.32s-23.27,30.5-23.27,43.32a23.27,23.27,0,0,0,46.54.31Z" transform="translate(-0.2 -62)" fill="#e6e6e6"/><path d="M716.21,489.6a.2.2,0,0,0,.19-.2V409.23a.2.2,0,0,0-.19-.19.2.2,0,0,0-.19.19h0V489.4a.19.19,0,0,0,.18.2Z" transform="translate(-0.2 -62)" fill="#3f3d56"/><path d="M716.21,424.71a.16.16,0,0,0,.13-.06l9.21-9.2a.19.19,0,0,0,0-.25l0,0a.2.2,0,0,0-.27,0h0l-9.21,9.2a.2.2,0,0,0,0,.28A.19.19,0,0,0,716.21,424.71Z" transform="translate(-0.2 -62)" fill="#3f3d56"/><path d="M716.21,440.64a.2.2,0,0,0,.19-.19h0a.16.16,0,0,0-.06-.13L700.92,424.9a.2.2,0,0,0-.27,0,.19.19,0,0,0,0,.25l0,0h0l15.42,15.41A.2.2,0,0,0,716.21,440.64Z" transform="translate(-0.2 -62)" fill="#3f3d56"/><path d="M680.23,488.06a1.88,1.88,0,0,0,1.88-1.88h0a1.89,1.89,0,0,0-.26-.95h0l-2.63-4.5-3.26,1.9,2.64,4.5a1.88,1.88,0,0,0,1.63.93Z" transform="translate(-0.2 -62)" fill="#6c63ff"/><circle cx="669.68" cy="413.45" r="2.32" fill="#6c63ff"/><path d="M690.44,488.06a1.88,1.88,0,0,0,1.62-2.84l-2.64-4.5-3.25,1.91,2.64,4.5A1.88,1.88,0,0,0,690.44,488.06Z" transform="translate(-0.2 -62)" fill="#6c63ff"/><path d="M675.25,485.05h11.69a6,6,0,0,0,6-6v-1.77a2.1,2.1,0,0,0-2.09-2.09h-15.6a4.93,4.93,0,1,0,0,9.86Z" transform="translate(-0.2 -62)" fill="#3f3d56"/><path d="M675.8,489.6a1.89,1.89,0,0,0,1.89-1.89h0v-5.22h-3.77v5.22a1.88,1.88,0,0,0,1.87,1.89Z" transform="translate(-0.2 -62)" fill="#3f3d56"/><path d="M686.74,489.6a1.89,1.89,0,0,0,1.89-1.89h0v-5.22h-3.77v5.22a1.88,1.88,0,0,0,1.87,1.89Z" transform="translate(-0.2 -62)" fill="#3f3d56"/><path d="M696.38,471.81l3.62,2.9,3.82-4.75a2.32,2.32,0,0,0-3.54-3l-.08.1Z" transform="translate(-0.2 -62)" fill="#6c63ff"/><path d="M691.27,478.76l6,4.81a1.68,1.68,0,0,0,2.35-.26l2.52-3.13a5.33,5.33,0,0,0-.82-7.49l-1-.77a4.47,4.47,0,0,0-6.28.68L691,476.4a1.67,1.67,0,0,0,.25,2.35h0Z" transform="translate(-0.2 -62)" fill="#3f3d56"/><path d="M696.38,471.81l2.49,2,4.27-5.32a1.6,1.6,0,0,0-2.34-2.18c-.06.06-.1.12-.15.18Z" transform="translate(-0.2 -62)" fill="#3f3d56"/><path d="M691.63,479l6.56,5.27a2.32,2.32,0,0,0,3-3.54l-.1-.08-6.55-5.26Z" transform="translate(-0.2 -62)" fill="#3f3d56"/><ellipse cx="701.31" cy="483.73" rx="0.98" ry="0.54" transform="translate(-115.2 665.61) rotate(-51.23)" fill="#6c63ff"/><path d="M719.3,486.52a2.79,2.79,0,0,0,2.79,2.79h0c1.54,0,1.6-1.4.39-2.79,1.21-.8,1.15-2.79-.39-2.79a2.79,2.79,0,0,0-2.8,2.78Z" transform="translate(-0.2 -62)" fill="#ccc"/><path d="M711.32,486.52a2.79,2.79,0,0,1-2.79,2.79h0c-1.54,0-1.6-1.4-.4-2.79-1.2-.8-1.14-2.79.4-2.79a2.79,2.79,0,0,1,2.8,2.78Z" transform="translate(-0.2 -62)" fill="#ccc"/><rect x="709.52" y="423.12" width="11.18" height="2.79" fill="#ccc"/><path d="M653.68,432c4.8-1.08,10.25,2.68,10.42,7.73a4.88,4.88,0,0,1-1.46,3.88,3.6,3.6,0,0,1-3.41.81c-2.25-.75-2.37-3.88-1.16-5.55,1.63-2.26,4.86-2.65,7.42-2.38a17.69,17.69,0,0,1,8.61,3.58c5,3.78,8.19,9.55,10.77,15.13a76.37,76.37,0,0,1,5.71,18c.15.78.28,1.56.4,2.34a.45.45,0,0,0,.56.31h0a.46.46,0,0,0,.31-.56,77.63,77.63,0,0,0-5.8-19.61c-2.7-6.05-6.1-12.32-11.52-16.36a18.33,18.33,0,0,0-9.26-3.71c-2.84-.25-6.2.35-8,2.82-1.39,1.94-1.25,5.18.91,6.54a4.1,4.1,0,0,0,3.92.08,5,5,0,0,0,2.64-3.28,8.35,8.35,0,0,0-2.38-7.85,10.11,10.11,0,0,0-7.07-3,9.31,9.31,0,0,0-1.9.23c-.57.13-.32,1,.25.87Z" transform="translate(-0.2 -62)" fill="#ccc"/><circle cx="633.09" cy="325.11" r="7.13" fill="#a0616a"/><path d="M633.75,427.09a3.19,3.19,0,0,0-2.06-4,2,2,0,0,0-.35-.09,2.1,2.1,0,0,0-.43-.05l-7.51-12.06,6.86-6.52a2.74,2.74,0,0,0-3.61-4.12l-.19.18L617,409.75h0a2.46,2.46,0,0,0,.18,3L627.7,425.2a1.67,1.67,0,0,1-.08.3,3.2,3.2,0,0,0,2.51,3.76l.36.05h.27A3.18,3.18,0,0,0,633.75,427.09Z" transform="translate(-0.2 -62)" fill="#a0616a"/><path d="M645,486.35h3.56l1.69-13.73H645Z" transform="translate(-0.2 -62)" fill="#a0616a"/><path d="M644,490h11.76v-.29a4.6,4.6,0,0,0-4.6-4.62H644Z" transform="translate(-0.2 -62)" fill="#2f2e41"/><path d="M609.66,481.43l3.06,1.82,8.48-10.93-4.52-2.69Z" transform="translate(-0.2 -62)" fill="#a0616a"/><path d="M617,490l.15-.25a4.62,4.62,0,0,0-1.6-6.32l-6.15-3.66L606.91,484Z" transform="translate(-0.2 -62)" fill="#2f2e41"/><path d="M650.74,480.3c2.38-28.07,3.8-54.15-4.91-64.8l-.07-.08-14.67,5.87h0c-.05.11-4.93,10.84-3.79,18.06L623.66,456l-11.8,19.75a1.3,1.3,0,0,0,.44,1.78h0l.15.08,5.13,2.25a1.32,1.32,0,0,0,1.64-.51l12.82-20.92,7.25-16.05a.44.44,0,0,1,.58-.22.45.45,0,0,1,.25.35l4,37.77a1.3,1.3,0,0,0,1.3,1.17h4a1.31,1.31,0,0,0,1.3-1.2Z" transform="translate(-0.2 -62)" fill="#2f2e41"/><path d="M645.78,415.73h.07v-.08A24.73,24.73,0,0,0,643.93,403a10.06,10.06,0,0,0-11.67-6h0a10,10,0,0,0-6.4,4.93,9.9,9.9,0,0,0-.69,8,141.38,141.38,0,0,0,5.32,13.1l.06.13Z" transform="translate(-0.2 -62)" fill="#6c63ff"/><path d="M656.33,431.64a3.26,3.26,0,0,0-2.34-3.56l-13.71-26.34a2.63,2.63,0,0,0-4.51,2.71v.06l14,26.15a3.93,3.93,0,0,0-.06.48,3.3,3.3,0,0,0,3.2,3.37H653a3.3,3.3,0,0,0,2.52-1.24,3.2,3.2,0,0,0,.69-1.64Z" transform="translate(-0.2 -62)" fill="#a0616a"/><path d="M641.94,383.08H630.62v-4.93c2.48-1,4.91-1.83,6.38,0A5,5,0,0,1,641.94,383.08Z" transform="translate(-0.2 -62)" fill="#2f2e41"/><path d="M630,377.28c-6.77,0-8.66,8.48-8.66,13.27,0,2.67,1.2,3.62,3.1,3.95l.67-3.58,1.57,3.73h1.67l.53-1.1,1.19,1.08c4.75,0,8.59.7,8.59-4.07S637,377.28,630,377.28Z" transform="translate(-0.2 -62)" fill="#2f2e41"/><path d="M464.86,421.7c0,24.82-14.75,33.48-32.94,33.48S399,446.52,399,421.7,432,365.33,432,365.33,464.86,396.89,464.86,421.7Z" transform="translate(-0.2 -62)" fill="#19d4b0"/><path d="M430.72,458.06l.33-20.77,14-25.69L431.1,434l.16-9.33,9.67-18.59L431.3,422.2h0l.27-16.8,10.36-14.8-10.32,12.16.17-30.79-1.07,40.76.09-1.68L420.26,395l10.37,19.36-1,18.76v-.5l-12.15-17,12.11,18.74-.12,2.34h0v.19L427,484.48h3.33l.4-24.58,12.08-18.68Z" transform="translate(-0.2 -62)" fill="#3f3d56"/><path d="M470.89,478.31c0,4.54-2.7,6.12-6,6.12h-.69c-3-.21-5.33-1.88-5.33-6.1s5.58-9.88,6-10.28h0S470.89,473.77,470.89,478.31Z" transform="translate(-0.2 -62)" fill="#e6b7cf"/><path d="M464.64,483.74l2.2-3.08-2.21,3.42v.35h-.46l.23-4.54h0v-.43L462.21,476l2.22,3.1v.09l.18-3.43-1.9-3.54,1.92,2.94.18-7.11h0v5.61l1.89-2.23-1.9,2.71v3.07l1.76-2.95-1.77,3.41v1.7l2.56-4.1-2.57,4.7Z" transform="translate(-0.2 -62)" fill="#3f3d56"/><path d="M323.35,425.18c0-14.66,11.89-49.44,26.56-49.44s26.56,34.78,26.56,49.44a26.56,26.56,0,0,1-53.12,0Z" transform="translate(-0.2 -62)" fill="#63ce80"/><path d="M349.91,489.76a.21.21,0,0,1-.21-.21h0V398a.21.21,0,0,1,.2-.22h0a.22.22,0,0,1,.22.22h0v91.51a.22.22,0,0,1-.22.22h0Z" transform="translate(-0.2 -62)" fill="#3f3d56"/><path d="M349.91,415.7a.21.21,0,0,1-.15-.07l-10.52-10.5a.23.23,0,0,1,0-.31.21.21,0,0,1,.3,0h0l10.52,10.51a.2.2,0,0,1,0,.28l0,0a.21.21,0,0,1-.15.07Z" transform="translate(-0.2 -62)" fill="#3f3d56"/><path d="M349.91,433.88a.22.22,0,0,1-.22-.22h0a.21.21,0,0,1,.07-.15l17.6-17.6a.23.23,0,0,1,.31,0,.21.21,0,0,1,0,.3h0l-17.6,17.6A.23.23,0,0,1,349.91,433.88Z" transform="translate(-0.2 -62)" fill="#3f3d56"/><path d="M278.15,409.68c0-18.17,14.75-61.31,32.94-61.31S344,391.51,344,409.68a32.94,32.94,0,0,1-65.88,0Z" transform="translate(-0.2 -62)" fill="#e6e6e6"/><path d="M311.09,489.76a.27.27,0,0,1-.27-.27V376a.27.27,0,0,1,.27-.27.28.28,0,0,1,.27.27V489.49a.27.27,0,0,1-.27.27Z" transform="translate(-0.2 -62)" fill="#3f3d56"/><path d="M311.09,397.92a.27.27,0,0,1-.19-.08l-13-13a.26.26,0,0,1,0-.38.26.26,0,0,1,.34,0h0l13,13a.28.28,0,0,1,0,.38.27.27,0,0,1-.19.08Z" transform="translate(-0.2 -62)" fill="#3f3d56"/><path d="M311.09,420.47a.27.27,0,0,1-.27-.27.27.27,0,0,1,.08-.19l21.83-21.81a.27.27,0,0,1,.43.33l0,0h0L311.3,420.37A.23.23,0,0,1,311.09,420.47Z" transform="translate(-0.2 -62)" fill="#3f3d56"/><path d="M235,378.32C235,353,255.45,293,280.74,293s45.8,60,45.8,85.32a45.8,45.8,0,1,1-91.6,0Z" transform="translate(-0.2 -62)" fill="#19d4b0"/><path d="M280.75,489.76a.38.38,0,0,1-.38-.38h0V331.47a.38.38,0,0,1,.36-.4h0a.38.38,0,0,1,.39.35h0v158a.38.38,0,0,1-.36.38Z" transform="translate(-0.2 -62)" fill="#3f3d56"/><path d="M280.75,362a.39.39,0,0,1-.27-.11l-18.13-18.13a.39.39,0,0,1,0-.53.37.37,0,0,1,.52,0h0L281,361.31a.37.37,0,0,1,0,.52h0a.39.39,0,0,1-.27.11Z" transform="translate(-0.2 -62)" fill="#3f3d56"/><path d="M280.75,393.34a.38.38,0,0,1-.38-.38h0a.36.36,0,0,1,.11-.26l30.36-30.36a.39.39,0,0,1,.53-.11.38.38,0,0,1,.1.53l-.08.09h0L281,393.23a.39.39,0,0,1-.27.11Z" transform="translate(-0.2 -62)" fill="#3f3d56"/><path d="M87.07,460.22a1,1,0,0,0,0-2H77.71v-3.94h9.36a1,1,0,0,0,0-2H7.25a1,1,0,0,0,0,2h9.36v3.94H7.25a1,1,0,0,0,0,2h9.36v3.95H7.25a1,1,0,0,0,0,2h9.36v3.94H8.23a2,2,0,1,0,0,3.94h8a1.37,1.37,0,0,0-.09.49v13.8a1.48,1.48,0,1,0,2.95.24,1,1,0,0,0,0-.24v-13.8A1.26,1.26,0,0,0,19,474H75.33a1.37,1.37,0,0,0-.09.49v13.8a1.5,1.5,0,0,0,3,0h0v-13.8a1.37,1.37,0,0,0-.09-.49h8a2,2,0,1,0,0-3.94H77.71v-3.94h9.36a1,1,0,1,0,0-2H77.71v-3.95Zm-68.49-5.91H75.74v3.94H18.58Zm57.16,15.77H18.58v-3.94H75.74Zm0-5.92H18.58v-3.94H75.74Z" transform="translate(-0.2 -62)" fill="#3f3d56"/><circle cx="50.98" cy="379.98" r="5.36" fill="#2f2e41"/><path d="M37.85,487.82H35.5l-1.11-9h3.46Z" transform="translate(-0.2 -62)" fill="#a0616a"/><path d="M33.83,487.15h4.52V490H31a2.86,2.86,0,0,1,2.85-2.85h0Z" transform="translate(-0.2 -62)" fill="#2f2e41"/><path d="M34.19,486.51l-2.24-.7,1.64-9,3.3,1Z" transform="translate(-0.2 -62)" fill="#a0616a"/><path d="M30.55,484.67,34.87,486,34,488.74l-7-2.21a2.85,2.85,0,0,1,3.57-1.86Z" transform="translate(-0.2 -62)" fill="#2f2e41"/><path d="M35,482.9a.76.76,0,0,1-.3,0L33,482.25a.85.85,0,0,1-.53-1c.43-1.95,1.91-8.6,2.72-12.17,1-4.23,15-5,15.59-5.05h0l1.58,2c.57,1.83.39,3.26-.54,4.25-2.7,2.88-10.78,1.09-11.74.87l-4.29,11.26A.88.88,0,0,1,35,482.9Z" transform="translate(-0.2 -62)" fill="#2f2e41"/><path d="M37.44,484.24a1,1,0,0,1-.3-.05l-1.73-.65a.85.85,0,0,1-.54-1c.44-2,1.92-8.6,2.73-12.17,1-4.23,15-5,15.58-5.05h0l1.58,2c.57,1.83.39,3.26-.53,4.25-2.7,2.88-10.78,1.09-11.74.87l-4.3,11.26A.86.86,0,0,1,37.44,484.24Z" transform="translate(-0.2 -62)" fill="#2f2e41"/><path d="M32.45,456.69a2.26,2.26,0,0,1,.16.26l9.44,1,1.36-1.86,3.08,1.68-2.67,4.52-11.57-3a2,2,0,1,1,0-2.88,1.54,1.54,0,0,1,.17.19Z" transform="translate(-0.2 -62)" fill="#a0616a"/><path d="M54.37,468.07A.94.94,0,0,1,54,468a28.1,28.1,0,0,0-9-3,.83.83,0,0,1-.59-.33.92.92,0,0,1-.16-.68,53.09,53.09,0,0,0,.92-9.5,4.72,4.72,0,0,1,3.56-4.69h0a15.18,15.18,0,0,1,1.9-.37,4.74,4.74,0,0,1,5.3,4.11h0a4.63,4.63,0,0,1,0,1.39c-.61,3.6-1.22,8.63-.69,12.14a.85.85,0,0,1-.35.83.81.81,0,0,1-.5.16Z" transform="translate(-0.2 -62)" fill="#ccc"/><path d="M45.36,458.91a.8.8,0,0,1-.34-.07l-2.46-1.06a.87.87,0,0,1-.45-1.14l1.9-4.39A2.2,2.2,0,0,1,48,454l-1.9,4.39a.86.86,0,0,1-.79.52Z" transform="translate(-0.2 -62)" fill="#ccc"/><circle cx="50.78" cy="381.24" r="4.7" fill="#a0616a"/><path d="M46.2,440.93a17.19,17.19,0,0,0,7.33,2.42l-.77-.93a5.92,5.92,0,0,0,1.76.35,2,2,0,0,0,1.56-.74,1.79,1.79,0,0,0,.12-1.65,3.45,3.45,0,0,0-1.06-1.33,6.33,6.33,0,0,0-5.9-1.05,3.71,3.71,0,0,0-1.77,1.13c-.44.55-1.3,1-1.07,1.71Z" transform="translate(-0.2 -62)" fill="#2f2e41"/><path d="M51.77,437.14a14.25,14.25,0,0,0-5.25-3.4,7.41,7.41,0,0,0-4-.5,3.82,3.82,0,0,0-3,2.49A4.79,4.79,0,0,0,40,439a33.38,33.38,0,0,1,1.48,3,6.79,6.79,0,0,1-6.83,9.1,33.58,33.58,0,0,1,3.79,1.12,4,4,0,0,0,3.73-.61c1-1,1-2.54,1-3.93L43,441.39a7.9,7.9,0,0,1,.32-3.13,2.68,2.68,0,0,1,2.34-1.84,3.87,3.87,0,0,1,2.15,1,4.32,4.32,0,0,0,2.11,1.06c.8.07,1.71-.52,1.65-1.32" transform="translate(-0.2 -62)" fill="#2f2e41"/><path d="M43.08,466.86a2.11,2.11,0,0,1,0-4.22,2.21,2.21,0,0,1,.84.17h0l.25.13,8.56-3.85.24-2.32,3.69-.1v3.87a2.08,2.08,0,0,1-1.5,2l-10,2.84a1.18,1.18,0,0,1-.07.2,2.09,2.09,0,0,1-1.94,1.3Z" transform="translate(-0.2 -62)" fill="#a0616a"/><path d="M56.33,458.56a.67.67,0,0,1-.34.09l-2.68.17a.86.86,0,0,1-.91-.81h0l-.29-4.77a2.2,2.2,0,1,1,4.38-.41.91.91,0,0,1,0,.17l.29,4.77a.87.87,0,0,1-.46.82Z" transform="translate(-0.2 -62)" fill="#ccc"/><path d="M50.51,467.34H35.4a.67.67,0,0,1-.67-.67h0a.67.67,0,0,1,.67-.67H50.51a.67.67,0,0,1,.67.67h0a.67.67,0,0,1-.67.67Z" transform="translate(-0.2 -62)" fill="#3f3d56"/><path d="M28.8,466.1v-9.38a1.24,1.24,0,0,1,1.2-1.24H47a1.23,1.23,0,0,1,1.24,1.22v9.4A1.25,1.25,0,0,1,47,467.34H30A1.24,1.24,0,0,1,28.8,466.1Z" transform="translate(-0.2 -62)" fill="#3f3d56"/><circle cx="38.36" cy="399.41" r="1.15" fill="#fff"/><path d="M354.41,468.61H291.26v2h9.85V490h2V470.65h38.36V490h2V470.65h10.87Z" transform="translate(-0.2 -62)" fill="#3f3d56"/><rect x="291.19" y="400.51" width="63.15" height="2.04" fill="#3f3d56"/><rect x="291.19" y="395.42" width="63.15" height="2.04" fill="#3f3d56"/><rect x="291.19" y="390.33" width="63.15" height="2.04" fill="#3f3d56"/><path d="M3.51,372.54c12.07,0,21.85,20,21.85,44.57s-9.78,44.57-21.85,44.57a22.6,22.6,0,0,1-2.83-.37l-.48-40v-48.3A18.52,18.52,0,0,1,3.51,372.54Z" transform="translate(-0.2 -62)" fill="#a29bfe"/><path d="M1.08,490c8.74-52.43.09-104.66,0-105.18L.21,385c.09.52,8.71,52.62,0,104.89Z" transform="translate(-0.2 -62)" fill="#3f3d56"/><rect x="1.7" y="416.33" width="0.88" height="3.4" transform="translate(-367.69 160.76) rotate(-61.86)" fill="#3f3d56"/><rect x="3.42" y="418.41" width="22.4" height="0.88" transform="translate(-196.14 -5.52) rotate(-28.16)" fill="#3f3d56"/></g></svg>