<svg xmlns="http://www.w3.org/2000/svg" width="21.078" height="21.513" viewBox="0 0 21.078 21.513">
  <path id="google" d="M10.756,9.216H20.91a10.183,10.183,0,0,1,.168,1.793A11.345,11.345,0,0,1,19.8,16.436a9.2,9.2,0,0,1-3.634,3.732,10.739,10.739,0,0,1-5.413,1.345,10.574,10.574,0,0,1-4.188-.847A10.543,10.543,0,0,1,.847,14.944a10.772,10.772,0,0,1,0-8.376A10.543,10.543,0,0,1,6.569.847,10.574,10.574,0,0,1,10.756,0a10.192,10.192,0,0,1,7.213,2.815L15.042,5.63a5.921,5.921,0,0,0-4.286-1.667,6.429,6.429,0,0,0-3.34.91A6.8,6.8,0,0,0,4.09,10.756a6.8,6.8,0,0,0,3.326,5.883,6.425,6.425,0,0,0,3.34.91A7.134,7.134,0,0,0,13,17.213a5.667,5.667,0,0,0,1.681-.84,6.054,6.054,0,0,0,1.149-1.149,5.375,5.375,0,0,0,.721-1.218,5.112,5.112,0,0,0,.315-1.092H10.756Z" fill="#db4437"/>
</svg>
